# Gemfan Tri-Blade Propeller
mtllib cinewhoop_prop.mtl
usemtl SkyBlueProp
v 0.000000 0.000000 0.005000
v 0.000000 0.000000 -0.005000
v 0.012000 0.000000 0.005000
v 0.012000 0.000000 -0.005000
v 0.011591 0.003106 0.005000
v 0.011591 0.003106 -0.005000
v 0.010392 0.006000 0.005000
v 0.010392 0.006000 -0.005000
v 0.008485 0.008485 0.005000
v 0.008485 0.008485 -0.005000
v 0.006000 0.010392 0.005000
v 0.006000 0.010392 -0.005000
v 0.003106 0.011591 0.005000
v 0.003106 0.011591 -0.005000
v 0.000000 0.012000 0.005000
v 0.000000 0.012000 -0.005000
v -0.003106 0.011591 0.005000
v -0.003106 0.011591 -0.005000
v -0.006000 0.010392 0.005000
v -0.006000 0.010392 -0.005000
v -0.008485 0.008485 0.005000
v -0.008485 0.008485 -0.005000
v -0.010392 0.006000 0.005000
v -0.010392 0.006000 -0.005000
v -0.011591 0.003106 0.005000
v -0.011591 0.003106 -0.005000
v -0.012000 0.000000 0.005000
v -0.012000 0.000000 -0.005000
v -0.011591 -0.003106 0.005000
v -0.011591 -0.003106 -0.005000
v -0.010392 -0.006000 0.005000
v -0.010392 -0.006000 -0.005000
v -0.008485 -0.008485 0.005000
v -0.008485 -0.008485 -0.005000
v -0.006000 -0.010392 0.005000
v -0.006000 -0.010392 -0.005000
v -0.003106 -0.011591 0.005000
v -0.003106 -0.011591 -0.005000
v -0.000000 -0.012000 0.005000
v -0.000000 -0.012000 -0.005000
v 0.003106 -0.011591 0.005000
v 0.003106 -0.011591 -0.005000
v 0.006000 -0.010392 0.005000
v 0.006000 -0.010392 -0.005000
v 0.008485 -0.008485 0.005000
v 0.008485 -0.008485 -0.005000
v 0.010392 -0.006000 0.005000
v 0.010392 -0.006000 -0.005000
v 0.011591 -0.003106 0.005000
v 0.011591 -0.003106 -0.005000
v 0.012000 0.000000 0.000000
v 0.012000 0.000991 0.001864
v 0.012000 0.001648 0.003099
v 0.012000 0.002113 0.003973
v 0.012000 0.001856 0.003491
v 0.012000 0.001122 0.002109
v 0.012000 0.000000 0.000000
v 0.020552 0.010753 -0.005371
v 0.020560 0.008115 -0.001735
v 0.020569 0.005166 0.001280
v 0.020578 0.002032 0.003928
v 0.020589 -0.001772 0.005241
v 0.020601 -0.006024 0.005663
v 0.020614 -0.010634 0.005371
v 0.029078 0.010963 -0.005078
v 0.029100 0.008252 -0.001561
v 0.029125 0.005252 0.001346
v 0.029151 0.002074 0.003879
v 0.029182 -0.001724 0.005099
v 0.029216 -0.005939 0.005440
v 0.029253 -0.010487 0.005078
v 0.037585 0.011254 -0.004759
v 0.037627 0.008493 -0.001371
v 0.037672 0.005466 0.001417
v 0.037720 0.002269 0.003825
v 0.037777 -0.001501 0.004945
v 0.037839 -0.005658 0.005196
v 0.037906 -0.010121 0.004759
v 0.046077 0.011648 -0.004419
v 0.046141 0.008864 -0.001169
v 0.046211 0.005834 0.001492
v 0.046285 0.002643 0.003768
v 0.046371 -0.001075 0.004780
v 0.046465 -0.005151 0.004937
v 0.046565 -0.009508 0.004419
v 0.054552 0.012168 -0.004062
v 0.054642 0.009386 -0.000957
v 0.054739 0.006379 0.001570
v 0.054841 0.003219 0.003707
v 0.054959 -0.000424 0.004606
v 0.055087 -0.004395 0.004664
v 0.055224 -0.008624 0.004062
v 0.063012 0.012833 -0.003694
v 0.063129 0.010079 -0.000740
v 0.063255 0.007121 0.001649
v 0.063387 0.004017 0.003641
v 0.063537 0.000475 0.004425
v 0.063700 -0.003369 0.004381
v 0.063873 -0.007446 0.003694
v 0.071456 0.013659 -0.003318
v 0.071600 0.010961 -0.000519
v 0.071754 0.008077 0.001728
v 0.071916 0.005057 0.003572
v 0.072099 0.001640 0.004238
v 0.072296 -0.002052 0.004091
v 0.072505 -0.005955 0.003318
v 0.079880 0.014664 -0.002940
v 0.080051 0.012049 -0.000298
v 0.080233 0.009265 0.001805
v 0.080423 0.006355 0.003500
v 0.080637 0.003088 0.004047
v 0.080867 -0.000428 0.003798
v 0.081109 -0.004133 0.002940
v 0.088283 0.015862 -0.002563
v 0.088479 0.013357 -0.000080
v 0.088686 0.010701 0.001879
v 0.088903 0.007928 0.003424
v 0.089144 0.004836 0.003855
v 0.089403 0.001521 0.003505
v 0.089675 -0.001963 0.002563
v 0.096662 0.017268 -0.002194
v 0.096878 0.014900 0.000132
v 0.097107 0.012400 0.001947
v 0.097346 0.009791 0.003346
v 0.097611 0.006899 0.003661
v 0.097894 0.003809 0.003214
v 0.098190 0.000569 0.002194
v 0.105012 0.018896 -0.001837
v 0.105245 0.016693 0.000334
v 0.105490 0.014375 0.002010
v 0.105746 0.011956 0.003264
v 0.106028 0.009290 0.003469
v 0.106328 0.006449 0.002930
v 0.106642 0.003478 0.001837
v 0.113330 0.020759 -0.001497
v 0.113572 0.018749 0.000524
v 0.113827 0.016639 0.002065
v 0.114092 0.014438 0.003179
v 0.114383 0.012023 0.003280
v 0.114693 0.009455 0.002655
v 0.115016 0.006775 0.001497
v -0.006000 0.010392 0.000000
v -0.006858 0.009897 0.001864
v -0.007427 0.009568 0.003099
v -0.007830 0.009336 0.003973
v -0.007608 0.009464 0.003491
v -0.006971 0.009832 0.002109
v -0.006000 0.010392 0.000000
v -0.019589 0.012422 -0.005371
v -0.017308 0.013748 -0.001735
v -0.014758 0.015230 0.001280
v -0.012049 0.016805 0.003928
v -0.008760 0.018716 0.005241
v -0.005084 0.020853 0.005663
v -0.001097 0.023170 0.005371
v -0.024034 0.019701 -0.005078
v -0.021696 0.021076 -0.001561
v -0.019110 0.022597 0.001346
v -0.016372 0.024208 0.003879
v -0.013098 0.026134 0.005099
v -0.009464 0.028272 0.005440
v -0.005545 0.030578 0.005078
v -0.028539 0.026923 -0.004759
v -0.026169 0.028339 -0.001371
v -0.023570 0.029892 0.001417
v -0.020825 0.031532 0.003825
v -0.017588 0.033466 0.004945
v -0.014020 0.035598 0.005196
v -0.010188 0.037888 0.004759
v -0.033126 0.034079 -0.004419
v -0.030747 0.035527 -0.001169
v -0.028158 0.037103 0.001492
v -0.025431 0.038762 0.003768
v -0.022254 0.040696 0.004780
v -0.018771 0.042815 0.004937
v -0.015048 0.045081 0.004419
v -0.037814 0.041160 -0.004062
v -0.035450 0.042628 -0.000957
v -0.032894 0.044216 0.001570
v -0.030208 0.045885 0.003707
v -0.027112 0.047808 0.004606
v -0.023737 0.049905 0.004664
v -0.020143 0.052137 0.004062
v -0.042620 0.048154 -0.003694
v -0.040294 0.049632 -0.000740
v -0.037794 0.051220 0.001649
v -0.035172 0.052886 0.003641
v -0.032180 0.054787 0.004425
v -0.028933 0.056850 0.004381
v -0.025488 0.059039 0.003694
v -0.047557 0.055053 -0.003318
v -0.045293 0.056527 -0.000519
v -0.042872 0.058102 0.001728
v -0.040338 0.059752 0.003572
v -0.037469 0.061620 0.004238
v -0.034371 0.063637 0.004091
v -0.031095 0.065769 0.003318
v -0.052639 0.061846 -0.002940
v -0.050460 0.063302 -0.000298
v -0.048141 0.064851 0.001805
v -0.045716 0.066471 0.003500
v -0.042993 0.068290 0.004047
v -0.040063 0.070247 0.003798
v -0.036975 0.072309 0.002940
v -0.057878 0.068524 -0.002563
v -0.055807 0.069946 -0.000080
v -0.053611 0.071454 0.001879
v -0.051317 0.073028 0.003424
v -0.048760 0.074783 0.003855
v -0.046019 0.076665 0.003505
v -0.043137 0.078643 0.002563
v -0.063285 0.075078 -0.002194
v -0.061343 0.076449 0.000132
v -0.059292 0.077897 0.001947
v -0.057152 0.079409 0.003346
v -0.054780 0.081084 0.003661
v -0.052245 0.082874 0.003214
v -0.049588 0.084751 0.002194
v -0.068870 0.081495 -0.001837
v -0.067079 0.082798 0.000334
v -0.065194 0.084170 0.002010
v -0.063227 0.085600 0.003264
v -0.061059 0.087177 0.003469
v -0.058749 0.088858 0.002930
v -0.056333 0.090616 0.001837
v -0.074643 0.087767 -0.001497
v -0.073024 0.088982 0.000524
v -0.071323 0.090258 0.002065
v -0.069550 0.091588 0.003179
v -0.067604 0.093047 0.003280
v -0.065535 0.094599 0.002655
v -0.063375 0.096219 0.001497
v -0.006000 -0.010392 0.000000
v -0.005142 -0.010888 0.001864
v -0.004573 -0.011216 0.003099
v -0.004170 -0.011449 0.003973
v -0.004392 -0.011321 0.003491
v -0.005029 -0.010953 0.002109
v -0.006000 -0.010392 0.000000
v -0.000964 -0.023175 -0.005371
v -0.003252 -0.021863 -0.001735
v -0.005810 -0.020396 0.001280
v -0.008529 -0.018837 0.003928
v -0.011829 -0.016944 0.005241
v -0.015517 -0.014829 0.005663
v -0.019517 -0.012535 0.005371
v -0.005045 -0.030664 -0.005078
v -0.007404 -0.029328 -0.001561
v -0.010014 -0.027849 0.001346
v -0.012779 -0.026282 0.003879
v -0.016084 -0.024410 0.005099
v -0.019752 -0.022332 0.005440
v -0.023709 -0.020091 0.005078
v -0.009047 -0.038177 -0.004759
v -0.011458 -0.036832 -0.001371
v -0.014103 -0.035358 0.001417
v -0.016895 -0.033801 0.003825
v -0.020188 -0.031965 0.004945
v -0.023819 -0.029941 0.005196
v -0.027718 -0.027767 0.004759
v -0.012951 -0.045728 -0.004419
v -0.015394 -0.044391 -0.001169
v -0.018053 -0.042937 0.001492
v -0.020853 -0.041405 0.003768
v -0.024117 -0.039620 0.004780
v -0.027693 -0.037664 0.004937
v -0.031517 -0.035573 0.004419
v -0.016738 -0.053328 -0.004062
v -0.019192 -0.052015 -0.000957
v -0.021845 -0.050595 0.001570
v -0.024633 -0.049103 0.003707
v -0.027846 -0.047384 0.004606
v -0.031350 -0.045509 0.004664
v -0.035080 -0.043513 0.004062
v -0.020393 -0.060987 -0.003694
v -0.022836 -0.059711 -0.000740
v -0.025461 -0.058341 0.001649
v -0.028214 -0.056903 0.003641
v -0.031357 -0.055262 0.004425
v -0.034768 -0.053482 0.004381
v -0.038385 -0.051593 0.003694
v -0.023898 -0.068712 -0.003318
v -0.026307 -0.067488 -0.000519
v -0.028882 -0.066180 0.001728
v -0.031578 -0.064810 0.003572
v -0.034629 -0.063259 0.004238
v -0.037925 -0.061584 0.004091
v -0.041410 -0.059814 0.003318
v -0.027241 -0.076510 -0.002940
v -0.029591 -0.075350 -0.000298
v -0.032092 -0.074117 0.001805
v -0.034708 -0.072826 0.003500
v -0.037644 -0.071378 0.004047
v -0.040804 -0.069819 0.003798
v -0.044134 -0.068176 0.002940
v -0.030405 -0.084386 -0.002563
v -0.032672 -0.083303 -0.000080
v -0.035075 -0.082155 0.001879
v -0.037585 -0.080956 0.003424
v -0.040384 -0.079619 0.003855
v -0.043384 -0.078186 0.003505
v -0.046538 -0.076679 0.002563
v -0.033376 -0.092345 -0.002194
v -0.035535 -0.091349 0.000132
v -0.037815 -0.090297 0.001947
v -0.040194 -0.089199 0.003346
v -0.042831 -0.087983 0.003661
v -0.045648 -0.086683 0.003214
v -0.048602 -0.085320 0.002194
v -0.036142 -0.100391 -0.001837
v -0.038166 -0.099492 0.000334
v -0.040296 -0.098544 0.002010
v -0.042519 -0.097556 0.003264
v -0.044968 -0.096468 0.003469
v -0.047579 -0.095307 0.002930
v -0.050309 -0.094094 0.001837
v -0.038687 -0.108526 -0.001497
v -0.040549 -0.107731 0.000524
v -0.042504 -0.106896 0.002065
v -0.044543 -0.106026 0.003179
v -0.046779 -0.105070 0.003280
v -0.049158 -0.104055 0.002655
v -0.051641 -0.102994 0.001497
f 1 3 5
f 2 6 4
f 3 4 6
f 3 6 5
f 1 5 7
f 2 8 6
f 5 6 8
f 5 8 7
f 1 7 9
f 2 10 8
f 7 8 10
f 7 10 9
f 1 9 11
f 2 12 10
f 9 10 12
f 9 12 11
f 1 11 13
f 2 14 12
f 11 12 14
f 11 14 13
f 1 13 15
f 2 16 14
f 13 14 16
f 13 16 15
f 1 15 17
f 2 18 16
f 15 16 18
f 15 18 17
f 1 17 19
f 2 20 18
f 17 18 20
f 17 20 19
f 1 19 21
f 2 22 20
f 19 20 22
f 19 22 21
f 1 21 23
f 2 24 22
f 21 22 24
f 21 24 23
f 1 23 25
f 2 26 24
f 23 24 26
f 23 26 25
f 1 25 27
f 2 28 26
f 25 26 28
f 25 28 27
f 1 27 29
f 2 30 28
f 27 28 30
f 27 30 29
f 1 29 31
f 2 32 30
f 29 30 32
f 29 32 31
f 1 31 33
f 2 34 32
f 31 32 34
f 31 34 33
f 1 33 35
f 2 36 34
f 33 34 36
f 33 36 35
f 1 35 37
f 2 38 36
f 35 36 38
f 35 38 37
f 1 37 39
f 2 40 38
f 37 38 40
f 37 40 39
f 1 39 41
f 2 42 40
f 39 40 42
f 39 42 41
f 1 41 43
f 2 44 42
f 41 42 44
f 41 44 43
f 1 43 45
f 2 46 44
f 43 44 46
f 43 46 45
f 1 45 47
f 2 48 46
f 45 46 48
f 45 48 47
f 1 47 49
f 2 50 48
f 47 48 50
f 47 50 49
f 1 49 3
f 2 4 50
f 49 50 4
f 49 4 3
f 51 58 59
f 51 59 52
f 51 52 59
f 51 59 58
f 52 59 60
f 52 60 53
f 52 53 60
f 52 60 59
f 53 60 61
f 53 61 54
f 53 54 61
f 53 61 60
f 54 61 62
f 54 62 55
f 54 55 62
f 54 62 61
f 55 62 63
f 55 63 56
f 55 56 63
f 55 63 62
f 56 63 64
f 56 64 57
f 56 57 64
f 56 64 63
f 58 65 66
f 58 66 59
f 58 59 66
f 58 66 65
f 59 66 67
f 59 67 60
f 59 60 67
f 59 67 66
f 60 67 68
f 60 68 61
f 60 61 68
f 60 68 67
f 61 68 69
f 61 69 62
f 61 62 69
f 61 69 68
f 62 69 70
f 62 70 63
f 62 63 70
f 62 70 69
f 63 70 71
f 63 71 64
f 63 64 71
f 63 71 70
f 65 72 73
f 65 73 66
f 65 66 73
f 65 73 72
f 66 73 74
f 66 74 67
f 66 67 74
f 66 74 73
f 67 74 75
f 67 75 68
f 67 68 75
f 67 75 74
f 68 75 76
f 68 76 69
f 68 69 76
f 68 76 75
f 69 76 77
f 69 77 70
f 69 70 77
f 69 77 76
f 70 77 78
f 70 78 71
f 70 71 78
f 70 78 77
f 72 79 80
f 72 80 73
f 72 73 80
f 72 80 79
f 73 80 81
f 73 81 74
f 73 74 81
f 73 81 80
f 74 81 82
f 74 82 75
f 74 75 82
f 74 82 81
f 75 82 83
f 75 83 76
f 75 76 83
f 75 83 82
f 76 83 84
f 76 84 77
f 76 77 84
f 76 84 83
f 77 84 85
f 77 85 78
f 77 78 85
f 77 85 84
f 79 86 87
f 79 87 80
f 79 80 87
f 79 87 86
f 80 87 88
f 80 88 81
f 80 81 88
f 80 88 87
f 81 88 89
f 81 89 82
f 81 82 89
f 81 89 88
f 82 89 90
f 82 90 83
f 82 83 90
f 82 90 89
f 83 90 91
f 83 91 84
f 83 84 91
f 83 91 90
f 84 91 92
f 84 92 85
f 84 85 92
f 84 92 91
f 86 93 94
f 86 94 87
f 86 87 94
f 86 94 93
f 87 94 95
f 87 95 88
f 87 88 95
f 87 95 94
f 88 95 96
f 88 96 89
f 88 89 96
f 88 96 95
f 89 96 97
f 89 97 90
f 89 90 97
f 89 97 96
f 90 97 98
f 90 98 91
f 90 91 98
f 90 98 97
f 91 98 99
f 91 99 92
f 91 92 99
f 91 99 98
f 93 100 101
f 93 101 94
f 93 94 101
f 93 101 100
f 94 101 102
f 94 102 95
f 94 95 102
f 94 102 101
f 95 102 103
f 95 103 96
f 95 96 103
f 95 103 102
f 96 103 104
f 96 104 97
f 96 97 104
f 96 104 103
f 97 104 105
f 97 105 98
f 97 98 105
f 97 105 104
f 98 105 106
f 98 106 99
f 98 99 106
f 98 106 105
f 100 107 108
f 100 108 101
f 100 101 108
f 100 108 107
f 101 108 109
f 101 109 102
f 101 102 109
f 101 109 108
f 102 109 110
f 102 110 103
f 102 103 110
f 102 110 109
f 103 110 111
f 103 111 104
f 103 104 111
f 103 111 110
f 104 111 112
f 104 112 105
f 104 105 112
f 104 112 111
f 105 112 113
f 105 113 106
f 105 106 113
f 105 113 112
f 107 114 115
f 107 115 108
f 107 108 115
f 107 115 114
f 108 115 116
f 108 116 109
f 108 109 116
f 108 116 115
f 109 116 117
f 109 117 110
f 109 110 117
f 109 117 116
f 110 117 118
f 110 118 111
f 110 111 118
f 110 118 117
f 111 118 119
f 111 119 112
f 111 112 119
f 111 119 118
f 112 119 120
f 112 120 113
f 112 113 120
f 112 120 119
f 114 121 122
f 114 122 115
f 114 115 122
f 114 122 121
f 115 122 123
f 115 123 116
f 115 116 123
f 115 123 122
f 116 123 124
f 116 124 117
f 116 117 124
f 116 124 123
f 117 124 125
f 117 125 118
f 117 118 125
f 117 125 124
f 118 125 126
f 118 126 119
f 118 119 126
f 118 126 125
f 119 126 127
f 119 127 120
f 119 120 127
f 119 127 126
f 121 128 129
f 121 129 122
f 121 122 129
f 121 129 128
f 122 129 130
f 122 130 123
f 122 123 130
f 122 130 129
f 123 130 131
f 123 131 124
f 123 124 131
f 123 131 130
f 124 131 132
f 124 132 125
f 124 125 132
f 124 132 131
f 125 132 133
f 125 133 126
f 125 126 133
f 125 133 132
f 126 133 134
f 126 134 127
f 126 127 134
f 126 134 133
f 128 135 136
f 128 136 129
f 128 129 136
f 128 136 135
f 129 136 137
f 129 137 130
f 129 130 137
f 129 137 136
f 130 137 138
f 130 138 131
f 130 131 138
f 130 138 137
f 131 138 139
f 131 139 132
f 131 132 139
f 131 139 138
f 132 139 140
f 132 140 133
f 132 133 140
f 132 140 139
f 133 140 141
f 133 141 134
f 133 134 141
f 133 141 140
f 142 149 150
f 142 150 143
f 142 143 150
f 142 150 149
f 143 150 151
f 143 151 144
f 143 144 151
f 143 151 150
f 144 151 152
f 144 152 145
f 144 145 152
f 144 152 151
f 145 152 153
f 145 153 146
f 145 146 153
f 145 153 152
f 146 153 154
f 146 154 147
f 146 147 154
f 146 154 153
f 147 154 155
f 147 155 148
f 147 148 155
f 147 155 154
f 149 156 157
f 149 157 150
f 149 150 157
f 149 157 156
f 150 157 158
f 150 158 151
f 150 151 158
f 150 158 157
f 151 158 159
f 151 159 152
f 151 152 159
f 151 159 158
f 152 159 160
f 152 160 153
f 152 153 160
f 152 160 159
f 153 160 161
f 153 161 154
f 153 154 161
f 153 161 160
f 154 161 162
f 154 162 155
f 154 155 162
f 154 162 161
f 156 163 164
f 156 164 157
f 156 157 164
f 156 164 163
f 157 164 165
f 157 165 158
f 157 158 165
f 157 165 164
f 158 165 166
f 158 166 159
f 158 159 166
f 158 166 165
f 159 166 167
f 159 167 160
f 159 160 167
f 159 167 166
f 160 167 168
f 160 168 161
f 160 161 168
f 160 168 167
f 161 168 169
f 161 169 162
f 161 162 169
f 161 169 168
f 163 170 171
f 163 171 164
f 163 164 171
f 163 171 170
f 164 171 172
f 164 172 165
f 164 165 172
f 164 172 171
f 165 172 173
f 165 173 166
f 165 166 173
f 165 173 172
f 166 173 174
f 166 174 167
f 166 167 174
f 166 174 173
f 167 174 175
f 167 175 168
f 167 168 175
f 167 175 174
f 168 175 176
f 168 176 169
f 168 169 176
f 168 176 175
f 170 177 178
f 170 178 171
f 170 171 178
f 170 178 177
f 171 178 179
f 171 179 172
f 171 172 179
f 171 179 178
f 172 179 180
f 172 180 173
f 172 173 180
f 172 180 179
f 173 180 181
f 173 181 174
f 173 174 181
f 173 181 180
f 174 181 182
f 174 182 175
f 174 175 182
f 174 182 181
f 175 182 183
f 175 183 176
f 175 176 183
f 175 183 182
f 177 184 185
f 177 185 178
f 177 178 185
f 177 185 184
f 178 185 186
f 178 186 179
f 178 179 186
f 178 186 185
f 179 186 187
f 179 187 180
f 179 180 187
f 179 187 186
f 180 187 188
f 180 188 181
f 180 181 188
f 180 188 187
f 181 188 189
f 181 189 182
f 181 182 189
f 181 189 188
f 182 189 190
f 182 190 183
f 182 183 190
f 182 190 189
f 184 191 192
f 184 192 185
f 184 185 192
f 184 192 191
f 185 192 193
f 185 193 186
f 185 186 193
f 185 193 192
f 186 193 194
f 186 194 187
f 186 187 194
f 186 194 193
f 187 194 195
f 187 195 188
f 187 188 195
f 187 195 194
f 188 195 196
f 188 196 189
f 188 189 196
f 188 196 195
f 189 196 197
f 189 197 190
f 189 190 197
f 189 197 196
f 191 198 199
f 191 199 192
f 191 192 199
f 191 199 198
f 192 199 200
f 192 200 193
f 192 193 200
f 192 200 199
f 193 200 201
f 193 201 194
f 193 194 201
f 193 201 200
f 194 201 202
f 194 202 195
f 194 195 202
f 194 202 201
f 195 202 203
f 195 203 196
f 195 196 203
f 195 203 202
f 196 203 204
f 196 204 197
f 196 197 204
f 196 204 203
f 198 205 206
f 198 206 199
f 198 199 206
f 198 206 205
f 199 206 207
f 199 207 200
f 199 200 207
f 199 207 206
f 200 207 208
f 200 208 201
f 200 201 208
f 200 208 207
f 201 208 209
f 201 209 202
f 201 202 209
f 201 209 208
f 202 209 210
f 202 210 203
f 202 203 210
f 202 210 209
f 203 210 211
f 203 211 204
f 203 204 211
f 203 211 210
f 205 212 213
f 205 213 206
f 205 206 213
f 205 213 212
f 206 213 214
f 206 214 207
f 206 207 214
f 206 214 213
f 207 214 215
f 207 215 208
f 207 208 215
f 207 215 214
f 208 215 216
f 208 216 209
f 208 209 216
f 208 216 215
f 209 216 217
f 209 217 210
f 209 210 217
f 209 217 216
f 210 217 218
f 210 218 211
f 210 211 218
f 210 218 217
f 212 219 220
f 212 220 213
f 212 213 220
f 212 220 219
f 213 220 221
f 213 221 214
f 213 214 221
f 213 221 220
f 214 221 222
f 214 222 215
f 214 215 222
f 214 222 221
f 215 222 223
f 215 223 216
f 215 216 223
f 215 223 222
f 216 223 224
f 216 224 217
f 216 217 224
f 216 224 223
f 217 224 225
f 217 225 218
f 217 218 225
f 217 225 224
f 219 226 227
f 219 227 220
f 219 220 227
f 219 227 226
f 220 227 228
f 220 228 221
f 220 221 228
f 220 228 227
f 221 228 229
f 221 229 222
f 221 222 229
f 221 229 228
f 222 229 230
f 222 230 223
f 222 223 230
f 222 230 229
f 223 230 231
f 223 231 224
f 223 224 231
f 223 231 230
f 224 231 232
f 224 232 225
f 224 225 232
f 224 232 231
f 233 240 241
f 233 241 234
f 233 234 241
f 233 241 240
f 234 241 242
f 234 242 235
f 234 235 242
f 234 242 241
f 235 242 243
f 235 243 236
f 235 236 243
f 235 243 242
f 236 243 244
f 236 244 237
f 236 237 244
f 236 244 243
f 237 244 245
f 237 245 238
f 237 238 245
f 237 245 244
f 238 245 246
f 238 246 239
f 238 239 246
f 238 246 245
f 240 247 248
f 240 248 241
f 240 241 248
f 240 248 247
f 241 248 249
f 241 249 242
f 241 242 249
f 241 249 248
f 242 249 250
f 242 250 243
f 242 243 250
f 242 250 249
f 243 250 251
f 243 251 244
f 243 244 251
f 243 251 250
f 244 251 252
f 244 252 245
f 244 245 252
f 244 252 251
f 245 252 253
f 245 253 246
f 245 246 253
f 245 253 252
f 247 254 255
f 247 255 248
f 247 248 255
f 247 255 254
f 248 255 256
f 248 256 249
f 248 249 256
f 248 256 255
f 249 256 257
f 249 257 250
f 249 250 257
f 249 257 256
f 250 257 258
f 250 258 251
f 250 251 258
f 250 258 257
f 251 258 259
f 251 259 252
f 251 252 259
f 251 259 258
f 252 259 260
f 252 260 253
f 252 253 260
f 252 260 259
f 254 261 262
f 254 262 255
f 254 255 262
f 254 262 261
f 255 262 263
f 255 263 256
f 255 256 263
f 255 263 262
f 256 263 264
f 256 264 257
f 256 257 264
f 256 264 263
f 257 264 265
f 257 265 258
f 257 258 265
f 257 265 264
f 258 265 266
f 258 266 259
f 258 259 266
f 258 266 265
f 259 266 267
f 259 267 260
f 259 260 267
f 259 267 266
f 261 268 269
f 261 269 262
f 261 262 269
f 261 269 268
f 262 269 270
f 262 270 263
f 262 263 270
f 262 270 269
f 263 270 271
f 263 271 264
f 263 264 271
f 263 271 270
f 264 271 272
f 264 272 265
f 264 265 272
f 264 272 271
f 265 272 273
f 265 273 266
f 265 266 273
f 265 273 272
f 266 273 274
f 266 274 267
f 266 267 274
f 266 274 273
f 268 275 276
f 268 276 269
f 268 269 276
f 268 276 275
f 269 276 277
f 269 277 270
f 269 270 277
f 269 277 276
f 270 277 278
f 270 278 271
f 270 271 278
f 270 278 277
f 271 278 279
f 271 279 272
f 271 272 279
f 271 279 278
f 272 279 280
f 272 280 273
f 272 273 280
f 272 280 279
f 273 280 281
f 273 281 274
f 273 274 281
f 273 281 280
f 275 282 283
f 275 283 276
f 275 276 283
f 275 283 282
f 276 283 284
f 276 284 277
f 276 277 284
f 276 284 283
f 277 284 285
f 277 285 278
f 277 278 285
f 277 285 284
f 278 285 286
f 278 286 279
f 278 279 286
f 278 286 285
f 279 286 287
f 279 287 280
f 279 280 287
f 279 287 286
f 280 287 288
f 280 288 281
f 280 281 288
f 280 288 287
f 282 289 290
f 282 290 283
f 282 283 290
f 282 290 289
f 283 290 291
f 283 291 284
f 283 284 291
f 283 291 290
f 284 291 292
f 284 292 285
f 284 285 292
f 284 292 291
f 285 292 293
f 285 293 286
f 285 286 293
f 285 293 292
f 286 293 294
f 286 294 287
f 286 287 294
f 286 294 293
f 287 294 295
f 287 295 288
f 287 288 295
f 287 295 294
f 289 296 297
f 289 297 290
f 289 290 297
f 289 297 296
f 290 297 298
f 290 298 291
f 290 291 298
f 290 298 297
f 291 298 299
f 291 299 292
f 291 292 299
f 291 299 298
f 292 299 300
f 292 300 293
f 292 293 300
f 292 300 299
f 293 300 301
f 293 301 294
f 293 294 301
f 293 301 300
f 294 301 302
f 294 302 295
f 294 295 302
f 294 302 301
f 296 303 304
f 296 304 297
f 296 297 304
f 296 304 303
f 297 304 305
f 297 305 298
f 297 298 305
f 297 305 304
f 298 305 306
f 298 306 299
f 298 299 306
f 298 306 305
f 299 306 307
f 299 307 300
f 299 300 307
f 299 307 306
f 300 307 308
f 300 308 301
f 300 301 308
f 300 308 307
f 301 308 309
f 301 309 302
f 301 302 309
f 301 309 308
f 303 310 311
f 303 311 304
f 303 304 311
f 303 311 310
f 304 311 312
f 304 312 305
f 304 305 312
f 304 312 311
f 305 312 313
f 305 313 306
f 305 306 313
f 305 313 312
f 306 313 314
f 306 314 307
f 306 307 314
f 306 314 313
f 307 314 315
f 307 315 308
f 307 308 315
f 307 315 314
f 308 315 316
f 308 316 309
f 308 309 316
f 308 316 315
f 310 317 318
f 310 318 311
f 310 311 318
f 310 318 317
f 311 318 319
f 311 319 312
f 311 312 319
f 311 319 318
f 312 319 320
f 312 320 313
f 312 313 320
f 312 320 319
f 313 320 321
f 313 321 314
f 313 314 321
f 313 321 320
f 314 321 322
f 314 322 315
f 314 315 322
f 314 322 321
f 315 322 323
f 315 323 316
f 315 316 323
f 315 323 322
