<?xml version="1.0" encoding="utf-8"?>
<COLLADA xmlns="http://www.collada.org/2005/11/COLLADASchema" version="1.4.1">
  <asset>
    <contributor><author>SwarmFYP</author></contributor>
    <created>2026-09-30T00:00:00</created>
    <modified>2026-09-30T00:00:00</modified>
    <unit name="meter" meter="1"/>
    <up_axis>Z_UP</up_axis>
  </asset>
  <library_geometries>
    <geometry id="CinewhoopPropCW-mesh" name="CinewhoopPropCW">
      <mesh>
        <source id="CinewhoopPropCW-positions">
          <float_array id="CinewhoopPropCW-positions-array" count="654">0.008000 0.000000 -0.004000 0.008000 0.000000 0.004000 0.007518 0.002736 -0.004000 0.007518 0.002736 0.004000 0.006128 0.005142 -0.004000 0.006128 0.005142 0.004000 0.004000 0.006928 -0.004000 0.004000 0.006928 0.004000 0.001389 0.007878 -0.004000 0.001389 0.007878 0.004000 -0.001389 0.007878 -0.004000 -0.001389 0.007878 0.004000 -0.004000 0.006928 -0.004000 -0.004000 0.006928 0.004000 -0.006128 0.005142 -0.004000 -0.006128 0.005142 0.004000 -0.007518 0.002736 -0.004000 -0.007518 0.002736 0.004000 -0.008000 0.000000 -0.004000 -0.008000 0.000000 0.004000 -0.007518 -0.002736 -0.004000 -0.007518 -0.002736 0.004000 -0.006128 -0.005142 -0.004000 -0.006128 -0.005142 0.004000 -0.004000 -0.006928 -0.004000 -0.004000 -0.006928 0.004000 -0.001389 -0.007878 -0.004000 -0.001389 -0.007878 0.004000 0.001389 -0.007878 -0.004000 0.001389 -0.007878 0.004000 0.004000 -0.006928 -0.004000 0.004000 -0.006928 0.004000 0.006128 -0.005142 -0.004000 0.006128 -0.005142 0.004000 0.007518 -0.002736 -0.004000 0.007518 -0.002736 0.004000 0.000000 0.000000 0.004000 0.000000 0.000000 -0.004000 -0.002146 0.008000 0.001047 0.000964 0.008000 0.001977 0.003219 0.008000 -0.001570 -0.000351 0.008000 -0.000719 -0.006354 0.014429 0.002935 0.000886 0.014429 0.001919 0.009530 0.014429 -0.004402 -0.000322 0.014429 -0.000698 -0.007631 0.020857 0.003332 0.000811 0.020857 0.001858 0.011446 0.020857 -0.004997 -0.000295 0.020857 -0.000676 -0.008089 0.027286 0.003331 0.000739 0.027286 0.001795 0.012134 0.027286 -0.004996 -0.000269 0.027286 -0.000653 -0.008049 0.033714 0.003117 0.000670 0.033714 0.001729 0.012074 0.033714 -0.004676 -0.000244 0.033714 -0.000629 -0.007671 0.040143 0.002787 0.000604 0.040143 0.001662 0.011507 0.040143 -0.004180 -0.000219 0.040143 -0.000604 -0.007058 0.046571 0.002397 0.000541 0.046571 0.001592 0.010588 0.046571 -0.003595 -0.000197 0.046571 -0.000579 -0.006286 0.053000 0.001988 0.000481 0.053000 0.001521 0.009428 0.053000 -0.002982 -0.000175 0.053000 -0.000553 -0.005410 0.059429 0.001586 0.000424 0.059429 0.001448 0.008115 0.059429 -0.002380 -0.000154 0.059429 -0.000526 -0.004477 0.065857 0.001211 0.000371 0.065857 0.001373 0.006716 0.065857 -0.001816 -0.000135 0.065857 -0.000499 -0.003523 0.072286 0.000874 0.000322 0.072286 0.001296 0.005284 0.072286 -0.001311 -0.000117 0.072286 -0.000471 -0.002577 0.078714 0.000582 0.000275 0.078714 0.001219 0.003866 0.078714 -0.000873 -0.000100 0.078714 -0.000443 -0.001663 0.085143 0.000339 0.000232 0.085143 0.001139 0.002495 0.085143 -0.000508 -0.000084 0.085143 -0.000414 -0.000799 0.091571 0.000145 0.000193 0.091571 0.001059 0.001199 0.091571 -0.000218 -0.000070 0.091571 -0.000385 -0.000000 0.098000 0.000000 0.000157 0.098000 0.000978 0.000000 0.098000 -0.000000 -0.000057 0.098000 -0.000355 -0.005855 -0.005858 0.001047 -0.007410 -0.003165 0.001977 -0.008538 -0.001213 -0.001570 -0.006753 -0.004304 -0.000719 -0.009319 -0.012717 0.002935 -0.012939 -0.006447 0.001919 -0.017261 0.001039 -0.004402 -0.012334 -0.007493 -0.000698 -0.014247 -0.017037 0.003332 -0.018468 -0.009726 0.001858 -0.023786 -0.000516 -0.004997 -0.017915 -0.010684 -0.000676 -0.019585 -0.020648 0.003331 -0.024000 -0.013003 0.001795 -0.029697 -0.003135 -0.004996 -0.023496 -0.013876 -0.000653 -0.025173 -0.023828 0.003117 -0.029532 -0.016277 0.001729 -0.035234 -0.006401 -0.004676 -0.029076 -0.017068 -0.000629 -0.030929 -0.026715 0.002787 -0.035067 -0.019549 0.001662 -0.040518 -0.010106 -0.004180 -0.034655 -0.020262 -0.000604 -0.036803 -0.029398 0.002397 -0.040602 -0.022817 0.001592 -0.045626 -0.014117 -0.003595 -0.040234 -0.023456 -0.000579 -0.042757 -0.031944 0.001988 -0.046140 -0.026083 0.001521 -0.050614 -0.018335 -0.002982 -0.045812 -0.026651 -0.000553 -0.048762 -0.034400 0.001586 -0.051679 -0.029347 0.001448 -0.055524 -0.022686 -0.002380 -0.051389 -0.029848 -0.000526 -0.054795 -0.036806 0.001211 -0.057220 -0.032607 0.001373 -0.060392 -0.027113 -0.001816 -0.056966 -0.033046 -0.000499 -0.060840 -0.039194 0.000874 -0.062762 -0.035864 0.001296 -0.065243 -0.031566 -0.001311 -0.062543 -0.036244 -0.000471 -0.066880 -0.041589 0.000582 -0.068306 -0.039119 0.001219 -0.070101 -0.036009 -0.000873 -0.068119 -0.039444 -0.000443 -0.072904 -0.044012 0.000339 -0.073852 -0.042370 0.001139 -0.074983 -0.040411 -0.000508 -0.073694 -0.042645 -0.000414 -0.078904 -0.046478 0.000145 -0.079399 -0.045619 0.001059 -0.079903 -0.044747 -0.000218 -0.079268 -0.045846 -0.000385 -0.084870 -0.049000 0.000000 -0.084949 -0.048864 0.000978 -0.084870 -0.049000 -0.000000 -0.084842 -0.049049 -0.000355 0.008001 -0.002142 0.001047 0.006446 -0.004835 0.001977 0.005319 -0.006787 -0.001570 0.007104 -0.003696 -0.000719 0.015672 -0.001712 0.002935 0.012052 -0.007982 0.001919 0.007730 -0.015468 -0.004402 0.012657 -0.006935 -0.000698 0.021878 -0.003820 0.003332 0.017657 -0.011131 0.001858 0.012340 -0.020341 -0.004997 0.018210 -0.010173 -0.000676 0.027675 -0.006637 0.003331 0.023261 -0.014283 0.001795 0.017563 -0.024151 -0.004996 0.023764 -0.013410 -0.000653 0.033222 -0.009886 0.003117 0.028863 -0.017437 0.001729 0.023161 -0.027313 -0.004676 0.029319 -0.016646 -0.000629 0.038600 -0.013428 0.002787 0.034463 -0.020594 0.001662 0.029011 -0.030037 -0.004180 0.034874 -0.019881 -0.000604 0.043861 -0.017173 0.002397 0.040062 -0.023754 0.001592 0.035038 -0.032455 -0.003595 0.040430 -0.023115 -0.000579 0.049042 -0.021056 0.001988 0.045659 -0.026917 0.001521 0.041185 -0.034665 -0.002982 0.045987 -0.026349 -0.000553 0.054172 -0.025029 0.001586 0.051254 -0.030082 0.001448 0.047409 -0.036742 -0.002380 0.051544 -0.029581 -0.000526 0.059272 -0.029051 0.001211 0.056848 -0.033250 0.001373 0.053676 -0.038744 -0.001816 0.057101 -0.032812 -0.000499 0.064363 -0.033092 0.000874 0.062441 -0.036421 0.001296 0.059959 -0.040719 -0.001311 0.062660 -0.036042 -0.000471 0.069457 -0.037125 0.000582 0.068031 -0.039595 0.001219 0.066236 -0.042705 -0.000873 0.068219 -0.039271 -0.000443 0.074567 -0.041131 0.000339 0.073620 -0.042772 0.001139 0.072489 -0.044732 -0.000508 0.073778 -0.042498 -0.000414 0.079703 -0.045094 0.000145 0.079207 -0.045953 0.001059 0.078704 -0.046824 -0.000218 0.079338 -0.045725 -0.000385 0.084870 -0.049000 0.000000 0.084792 -0.049136 0.000978 0.084870 -0.049000 -0.000000 0.084899 -0.048951 -0.000355</float_array>
          <technique_common>
            <accessor source="#CinewhoopPropCW-positions-array" count="218" stride="3">
              <param name="X" type="float"/>
              <param name="Y" type="float"/>
              <param name="Z" type="float"/>
            </accessor>
          </technique_common>
        </source>
        <source id="CinewhoopPropCW-normals">
          <float_array id="CinewhoopPropCW-normals-array" count="654">0.831057 0.048846 -0.554038 0.831057 -0.048846 0.554038 0.764232 0.330138 -0.554038 0.797645 0.238338 0.554038 0.605229 0.571611 -0.554038 0.668024 0.496775 0.554038 0.373227 0.744140 -0.554038 0.457830 0.695294 0.554038 0.096208 0.826913 -0.554038 0.192415 0.809949 0.554038 -0.192415 0.809949 -0.554038 -0.096208 0.826913 0.554038 -0.457830 0.695294 -0.554038 -0.373227 0.744140 0.554038 -0.668024 0.496775 -0.554038 -0.605229 0.571611 0.554038 -0.797645 0.238338 -0.554038 -0.764232 0.330138 0.554038 -0.831057 -0.048846 -0.554038 -0.831057 0.048846 0.554038 -0.764232 -0.330138 -0.554038 -0.797645 -0.238338 0.554038 -0.605229 -0.571611 -0.554038 -0.668024 -0.496775 0.554038 -0.373227 -0.744140 -0.554038 -0.457830 -0.695294 0.554038 -0.096208 -0.826913 -0.554038 -0.192415 -0.809949 0.554038 0.192415 -0.809949 -0.554038 0.096208 -0.826913 0.554038 0.457830 -0.695294 -0.554038 0.373227 -0.744140 0.554038 0.668024 -0.496775 -0.554038 0.605229 -0.571611 0.554038 0.797645 -0.238338 -0.554038 0.764232 -0.330138 0.554038 0.000000 0.000000 1.000000 0.000000 0.000000 -1.000000 0.187511 0.231305 -0.954640 -0.532702 0.138093 -0.834960 0.086493 0.272655 0.958216 0.480341 0.044335 0.875961 0.506052 0.233670 -0.830247 -0.411951 0.042217 -0.910228 -0.335516 0.291289 0.895868 0.416109 0.019379 0.909108 0.817510 0.069821 -0.571667 -0.395634 0.006699 -0.918384 -0.759162 0.098091 0.643468 0.399729 -0.001809 0.916632 0.911141 -0.002505 -0.412087 -0.376882 -0.002873 -0.926257 -0.901500 -0.006392 0.432733 0.380978 -0.006831 0.924559 0.956467 -0.047184 -0.288000 -0.357566 -0.008361 -0.933850 -0.962424 -0.071984 0.261838 0.361746 -0.009356 0.932230 0.979152 -0.075377 -0.188627 -0.337898 -0.012253 -0.941103 -0.985459 -0.112092 0.127698 0.342226 -0.010793 0.939556 0.989869 -0.092687 -0.107559 -0.317941 -0.015400 -0.947985 -0.990518 -0.135558 0.022328 0.322483 -0.011645 0.946504 0.993917 -0.102425 -0.040475 -0.297708 -0.018211 -0.954483 -0.987082 -0.147960 -0.061453 0.302548 -0.012170 0.953056 0.994168 -0.106700 0.015648 -0.277177 -0.020964 -0.960590 -0.979804 -0.152778 -0.129007 0.282435 -0.012538 0.959205 0.992271 -0.106922 0.062970 -0.256285 -0.023939 -0.966305 -0.971043 -0.152223 -0.184128 0.262147 -0.012896 0.964942 0.989216 -0.104070 0.103058 -0.234876 -0.027571 -0.971634 -0.962040 -0.147732 -0.229464 0.241671 -0.013429 0.970265 0.985619 -0.098844 0.137059 -0.212563 -0.032777 -0.976597 -0.953472 -0.140269 -0.266864 0.220959 -0.014466 0.975176 0.981879 -0.091758 0.165815 -0.188140 -0.042269 -0.981232 -0.945727 -0.130493 -0.297610 0.199844 -0.016872 0.979682 0.978264 -0.083196 0.189941 -0.155267 -0.069902 -0.985396 -0.939049 -0.118861 -0.322581 0.177503 -0.024575 0.983813 0.959847 -0.090144 0.265645 0.674106 -0.100360 -0.731785 -0.951982 -0.100579 -0.289161 -0.130319 -0.057874 0.989782 -0.294072 0.046737 -0.954640 0.146759 -0.530380 -0.834960 -0.279373 -0.061422 0.958216 -0.278566 0.393820 0.875961 -0.455390 0.321419 -0.830247 0.169414 -0.377868 -0.910228 -0.084506 -0.436210 0.895868 -0.224837 0.350671 0.909108 -0.469221 0.673074 -0.571667 0.192015 -0.345978 -0.918384 0.294632 -0.706499 0.643468 -0.198298 0.347080 0.916632 -0.453401 0.790323 -0.412087 0.190929 -0.324953 -0.926257 0.456285 -0.777525 0.432733 -0.184573 0.333352 0.924559 -0.437371 0.851917 -0.288000 0.186024 -0.305481 -0.933850 0.543552 -0.797491 0.261838 -0.172771 0.317959 0.932230 -0.424297 0.885659 -0.188627 0.179561 -0.286502 -0.941103 0.589804 -0.797386 0.127698 -0.161766 0.301773 0.939556 -0.414665 0.903595 -0.107559 0.172307 -0.267645 -0.947985 0.612656 -0.790034 0.022328 -0.151156 0.285101 0.946504 -0.408255 0.911970 -0.040475 0.164625 -0.248717 -0.954483 0.621678 -0.780859 -0.061453 -0.140734 0.268100 0.953056 -0.404679 0.914325 0.015648 0.156744 -0.229561 -0.960590 0.622211 -0.772146 -0.129007 -0.130360 0.250865 0.959205 -0.403538 0.912793 0.062970 0.148874 -0.209979 -0.966305 0.617350 -0.764837 -0.184128 -0.119905 0.233474 0.964942 -0.404481 0.908721 0.103058 0.141315 -0.189623 -0.971634 0.608960 -0.759285 -0.229464 -0.109205 0.216008 0.970265 -0.407208 0.902993 0.137059 0.134668 -0.167697 -0.976597 0.598213 -0.755596 -0.266864 -0.097952 0.198589 0.975176 -0.411474 0.896211 0.165815 0.130676 -0.141800 -0.981232 0.585874 -0.753777 -0.297610 -0.085311 0.181506 0.979682 -0.417082 0.888800 0.189941 0.138170 -0.099515 -0.985396 0.572461 -0.753810 -0.322581 -0.067469 0.166010 0.983813 -0.401857 0.876324 0.265645 -0.250139 0.633973 -0.731785 0.563095 -0.774151 -0.289161 0.115280 -0.083922 0.989782 0.106561 -0.278042 -0.954640 0.385944 0.392287 -0.834960 0.192880 -0.211233 0.958216 -0.201775 -0.438155 0.875961 -0.050662 -0.555089 -0.830247 0.242537 0.335651 -0.910228 0.420022 0.144920 0.895868 -0.191272 -0.370050 0.909108 -0.348288 -0.742895 -0.571667 0.203619 0.339279 -0.918384 0.464530 0.608408 0.643468 -0.201431 -0.345271 0.916632 -0.457739 -0.787819 -0.412087 0.185953 0.327826 -0.926257 0.445214 0.783918 0.432733 -0.196405 -0.326521 0.924559 -0.519096 -0.804733 -0.288000 0.171542 0.313842 -0.933850 0.418871 0.869476 0.261838 -0.188976 -0.308604 0.932230 -0.554855 -0.810282 -0.188627 0.158338 0.298755 -0.941103 0.395655 0.909478 0.127698 -0.180460 -0.290980 0.939556 -0.575204 -0.810908 -0.107559 0.145634 0.283045 -0.947985 0.377862 0.925593 0.022328 -0.171327 -0.273456 0.946504 -0.585661 -0.809545 -0.040475 0.133082 0.266928 -0.954483 0.365404 0.928818 -0.061453 -0.161814 -0.255929 0.953056 -0.589489 -0.807625 0.015648 0.120434 0.250524 -0.960590 0.357593 0.924924 -0.129007 -0.152075 -0.238327 0.959205 -0.588733 -0.805871 0.062970 0.107410 0.233919 -0.966305 0.353693 0.917060 -0.184128 -0.142242 -0.220578 0.964942 -0.584735 -0.804651 0.103058 0.093561 0.217194 -0.971634 0.353080 0.907017 -0.229464 -0.132466 -0.202579 0.970265 -0.578411 -0.804149 0.137059 0.077896 0.200474 -0.976597 0.355259 0.895865 -0.266864 -0.123007 -0.184123 0.975176 -0.570404 -0.804453 0.165815 0.057464 0.184068 -0.981232 0.359853 0.884270 -0.297610 -0.114534 -0.164634 0.979682 -0.561182 -0.805604 0.189941 0.017097 0.169416 -0.985396 0.366588 0.872671 -0.322581 -0.110034 -0.141435 0.983813 -0.557990 -0.786180 0.265645 -0.423967 -0.533613 -0.731785 0.388887 0.874730 -0.289161 0.015039 0.141797 0.989782</float_array>
          <technique_common>
            <accessor source="#CinewhoopPropCW-normals-array" count="218" stride="3">
              <param name="X" type="float"/>
              <param name="Y" type="float"/>
              <param name="Z" type="float"/>
            </accessor>
          </technique_common>
        </source>
        <source id="CinewhoopPropCW-uvs">
          <float_array id="CinewhoopPropCW-uvs-array" count="436">0.511429 0.500000 0.511429 0.500000 0.510739 0.503909 0.510739 0.503909 0.508755 0.507346 0.508755 0.507346 0.505714 0.509897 0.505714 0.509897 0.501985 0.511255 0.501985 0.511255 0.498015 0.511255 0.498015 0.511255 0.494286 0.509897 0.494286 0.509897 0.491245 0.507346 0.491245 0.507346 0.489261 0.503909 0.489261 0.503909 0.488571 0.500000 0.488571 0.500000 0.489261 0.496091 0.489261 0.496091 0.491245 0.492654 0.491245 0.492654 0.494286 0.490103 0.494286 0.490103 0.498015 0.488745 0.498015 0.488745 0.501985 0.488745 0.501985 0.488745 0.505714 0.490103 0.505714 0.490103 0.508755 0.492654 0.508755 0.492654 0.510739 0.496091 0.510739 0.496091 0.500000 0.500000 0.500000 0.500000 0.496935 0.511429 0.501378 0.511429 0.504598 0.511429 0.499499 0.511429 0.490924 0.520612 0.501266 0.520612 0.513615 0.520612 0.499540 0.520612 0.489099 0.529796 0.501159 0.529796 0.516352 0.529796 0.499579 0.529796 0.488444 0.538980 0.501056 0.538980 0.517334 0.538980 0.499616 0.538980 0.488501 0.548163 0.500957 0.548163 0.517248 0.548163 0.499652 0.548163 0.489041 0.557347 0.500862 0.557347 0.516438 0.557347 0.499686 0.557347 0.489917 0.566531 0.500772 0.566531 0.515125 0.566531 0.499719 0.566531 0.491020 0.575714 0.500687 0.575714 0.513469 0.575714 0.499750 0.575714 0.492271 0.584898 0.500606 0.584898 0.511593 0.584898 0.499779 0.584898 0.493604 0.594082 0.500530 0.594082 0.509594 0.594082 0.499807 0.594082 0.494967 0.603265 0.500459 0.603265 0.507549 0.603265 0.499833 0.603265 0.496318 0.612449 0.500393 0.612449 0.505522 0.612449 0.499857 0.612449 0.497624 0.621633 0.500332 0.621633 0.503564 0.621633 0.499879 0.621633 0.498858 0.630816 0.500275 0.630816 0.501713 0.630816 0.499900 0.630816 0.500000 0.640000 0.500224 0.640000 0.500000 0.640000 0.499919 0.640000 0.491635 0.491631 0.489414 0.495479 0.487803 0.498268 0.490353 0.493852 0.486688 0.481833 0.481516 0.490790 0.475342 0.501485 0.482379 0.489295 0.479647 0.475661 0.473617 0.486106 0.466020 0.499263 0.474407 0.484737 0.472021 0.470502 0.465715 0.481424 0.457576 0.495522 0.466435 0.480178 0.464039 0.465960 0.457811 0.476747 0.449665 0.490856 0.458463 0.475617 0.455815 0.461836 0.449905 0.472073 0.442117 0.485562 0.450493 0.471055 0.447425 0.458002 0.441997 0.467404 0.434820 0.479834 0.442523 0.466491 0.438919 0.454366 0.434086 0.462738 0.427695 0.473808 0.434554 0.461926 0.430341 0.450858 0.426173 0.458076 0.420680 0.467591 0.426586 0.457360 0.421721 0.447420 0.418258 0.453419 0.413726 0.461268 0.418619 0.452792 0.413086 0.444009 0.410340 0.448765 0.406795 0.454905 0.410653 0.448223 0.404457 0.440587 0.402420 0.444116 0.399855 0.448558 0.402688 0.443652 0.395851 0.437126 0.394497 0.439471 0.392881 0.442270 0.394723 0.439079 0.387281 0.433603 0.386572 0.434830 0.385853 0.436075 0.386760 0.434505 0.378756 0.430000 0.378645 0.430194 0.378756 0.430000 0.378797 0.429930 0.511430 0.496940 0.509209 0.493093 0.507598 0.490304 0.510148 0.494720 0.522389 0.497554 0.517218 0.488597 0.511043 0.477903 0.518081 0.490093 0.531255 0.494543 0.525225 0.484099 0.517628 0.470941 0.526015 0.485467 0.539535 0.490518 0.533230 0.479596 0.525090 0.465498 0.533949 0.480843 0.547460 0.485877 0.541232 0.475090 0.533086 0.460981 0.541885 0.476220 0.555143 0.480817 0.549233 0.470580 0.541445 0.457091 0.549821 0.471598 0.562659 0.475467 0.557231 0.466066 0.550055 0.453636 0.557758 0.466978 0.570060 0.469919 0.565227 0.461548 0.558836 0.450478 0.565695 0.462359 0.577388 0.464244 0.573221 0.457026 0.567727 0.447511 0.573634 0.457742 0.584675 0.458498 0.581212 0.452500 0.576680 0.444651 0.581574 0.453126 0.591947 0.452726 0.589201 0.447970 0.585656 0.441830 0.589514 0.448512 0.599225 0.446964 0.597187 0.443435 0.594622 0.438993 0.597455 0.443899 0.606525 0.441241 0.605171 0.438896 0.603555 0.436097 0.605397 0.439288 0.613861 0.435581 0.613153 0.434354 0.612434 0.433109 0.613340 0.434678 0.621244 0.430000 0.621132 0.429806 0.621244 0.430000 0.621284 0.430070</float_array>
          <technique_common>
            <accessor source="#CinewhoopPropCW-uvs-array" count="218" stride="2">
              <param name="S" type="float"/>
              <param name="T" type="float"/>
            </accessor>
          </technique_common>
        </source>
        <vertices id="CinewhoopPropCW-vertices">
          <input semantic="POSITION" source="#CinewhoopPropCW-positions"/>
        </vertices>
        <polylist count="414">
          <input semantic="VERTEX" source="#CinewhoopPropCW-vertices" offset="0"/>
          <input semantic="NORMAL" source="#CinewhoopPropCW-normals" offset="1"/>
          <input semantic="TEXCOORD" source="#CinewhoopPropCW-uvs" offset="2" set="0"/>
          <vcount>3 3 3 3 3 3 3 3 3 3 3 3 3 3 3 3 3 3 3 3 3 3 3 3 3 3 3 3 3 3 3 3 3 3 3 3 3 3 3 3 3 3 3 3 3 3 3 3 3 3 3 3 3 3 3 3 3 3 3 3 3 3 3 3 3 3 3 3 3 3 3 3 3 3 3 3 3 3 3 3 3 3 3 3 3 3 3 3 3 3 3 3 3 3 3 3 3 3 3 3 3 3 3 3 3 3 3 3 3 3 3 3 3 3 3 3 3 3 3 3 3 3 3 3 3 3 3 3 3 3 3 3 3 3 3 3 3 3 3 3 3 3 3 3 3 3 3 3 3 3 3 3 3 3 3 3 3 3 3 3 3 3 3 3 3 3 3 3 3 3 3 3 3 3 3 3 3 3 3 3 3 3 3 3 3 3 3 3 3 3 3 3 3 3 3 3 3 3 3 3 3 3 3 3 3 3 3 3 3 3 3 3 3 3 3 3 3 3 3 3 3 3 3 3 3 3 3 3 3 3 3 3 3 3 3 3 3 3 3 3 3 3 3 3 3 3 3 3 3 3 3 3 3 3 3 3 3 3 3 3 3 3 3 3 3 3 3 3 3 3 3 3 3 3 3 3 3 3 3 3 3 3 3 3 3 3 3 3 3 3 3 3 3 3 3 3 3 3 3 3 3 3 3 3 3 3 3 3 3 3 3 3 3 3 3 3 3 3 3 3 3 3 3 3 3 3 3 3 3 3 3 3 3 3 3 3 3 3 3 3 3 3 3 3 3 3 3 3 3 3 3 3 3 3 3 3 3 3 3 3 3 3 3 3 3 3 3 3 3 3 3 3 3 3 3 3 3 3 3 3 3 3 3 3 3 3 3 3 3 3 3 3 3 3 3 3 3 3 3 3 3 3 3 3 3 3 3 3 3 3 3 3 3 3</vcount>
          <p>0 0 0 2 2 2 3 3 3 0 0 0 3 3 3 1 1 1 2 2 2 4 4 4 5 5 5 2 2 2 5 5 5 3 3 3 4 4 4 6 6 6 7 7 7 4 4 4 7 7 7 5 5 5 6 6 6 8 8 8 9 9 9 6 6 6 9 9 9 7 7 7 8 8 8 10 10 10 11 11 11 8 8 8 11 11 11 9 9 9 10 10 10 12 12 12 13 13 13 10 10 10 13 13 13 11 11 11 12 12 12 14 14 14 15 15 15 12 12 12 15 15 15 13 13 13 14 14 14 16 16 16 17 17 17 14 14 14 17 17 17 15 15 15 16 16 16 18 18 18 19 19 19 16 16 16 19 19 19 17 17 17 18 18 18 20 20 20 21 21 21 18 18 18 21 21 21 19 19 19 20 20 20 22 22 22 23 23 23 20 20 20 23 23 23 21 21 21 22 22 22 24 24 24 25 25 25 22 22 22 25 25 25 23 23 23 24 24 24 26 26 26 27 27 27 24 24 24 27 27 27 25 25 25 26 26 26 28 28 28 29 29 29 26 26 26 29 29 29 27 27 27 28 28 28 30 30 30 31 31 31 28 28 28 31 31 31 29 29 29 30 30 30 32 32 32 33 33 33 30 30 30 33 33 33 31 31 31 32 32 32 34 34 34 35 35 35 32 32 32 35 35 35 33 33 33 34 34 34 0 0 0 1 1 1 34 34 34 1 1 1 35 35 35 36 36 36 1 1 1 3 3 3 37 37 37 2 2 2 0 0 0 36 36 36 3 3 3 5 5 5 37 37 37 4 4 4 2 2 2 36 36 36 5 5 5 7 7 7 37 37 37 6 6 6 4 4 4 36 36 36 7 7 7 9 9 9 37 37 37 8 8 8 6 6 6 36 36 36 9 9 9 11 11 11 37 37 37 10 10 10 8 8 8 36 36 36 11 11 11 13 13 13 37 37 37 12 12 12 10 10 10 36 36 36 13 13 13 15 15 15 37 37 37 14 14 14 12 12 12 36 36 36 15 15 15 17 17 17 37 37 37 16 16 16 14 14 14 36 36 36 17 17 17 19 19 19 37 37 37 18 18 18 16 16 16 36 36 36 19 19 19 21 21 21 37 37 37 20 20 20 18 18 18 36 36 36 21 21 21 23 23 23 37 37 37 22 22 22 20 20 20 36 36 36 23 23 23 25 25 25 37 37 37 24 24 24 22 22 22 36 36 36 25 25 25 27 27 27 37 37 37 26 26 26 24 24 24 36 36 36 27 27 27 29 29 29 37 37 37 28 28 28 26 26 26 36 36 36 29 29 29 31 31 31 37 37 37 30 30 30 28 28 28 36 36 36 31 31 31 33 33 33 37 37 37 32 32 32 30 30 30 36 36 36 33 33 33 35 35 35 37 37 37 34 34 34 32 32 32 36 36 36 35 35 35 1 1 1 37 37 37 0 0 0 34 34 34 38 38 38 42 42 42 43 43 43 38 38 38 43 43 43 39 39 39 39 39 39 43 43 43 44 44 44 39 39 39 44 44 44 40 40 40 40 40 40 44 44 44 45 45 45 40 40 40 45 45 45 41 41 41 41 41 41 45 45 45 42 42 42 41 41 41 42 42 42 38 38 38 42 42 42 46 46 46 47 47 47 42 42 42 47 47 47 43 43 43 43 43 43 47 47 47 48 48 48 43 43 43 48 48 48 44 44 44 44 44 44 48 48 48 49 49 49 44 44 44 49 49 49 45 45 45 45 45 45 49 49 49 46 46 46 45 45 45 46 46 46 42 42 42 46 46 46 50 50 50 51 51 51 46 46 46 51 51 51 47 47 47 47 47 47 51 51 51 52 52 52 47 47 47 52 52 52 48 48 48 48 48 48 52 52 52 53 53 53 48 48 48 53 53 53 49 49 49 49 49 49 53 53 53 50 50 50 49 49 49 50 50 50 46 46 46 50 50 50 54 54 54 55 55 55 50 50 50 55 55 55 51 51 51 51 51 51 55 55 55 56 56 56 51 51 51 56 56 56 52 52 52 52 52 52 56 56 56 57 57 57 52 52 52 57 57 57 53 53 53 53 53 53 57 57 57 54 54 54 53 53 53 54 54 54 50 50 50 54 54 54 58 58 58 59 59 59 54 54 54 59 59 59 55 55 55 55 55 55 59 59 59 60 60 60 55 55 55 60 60 60 56 56 56 56 56 56 60 60 60 61 61 61 56 56 56 61 61 61 57 57 57 57 57 57 61 61 61 58 58 58 57 57 57 58 58 58 54 54 54 58 58 58 62 62 62 63 63 63 58 58 58 63 63 63 59 59 59 59 59 59 63 63 63 64 64 64 59 59 59 64 64 64 60 60 60 60 60 60 64 64 64 65 65 65 60 60 60 65 65 65 61 61 61 61 61 61 65 65 65 62 62 62 61 61 61 62 62 62 58 58 58 62 62 62 66 66 66 67 67 67 62 62 62 67 67 67 63 63 63 63 63 63 67 67 67 68 68 68 63 63 63 68 68 68 64 64 64 64 64 64 68 68 68 69 69 69 64 64 64 69 69 69 65 65 65 65 65 65 69 69 69 66 66 66 65 65 65 66 66 66 62 62 62 66 66 66 70 70 70 71 71 71 66 66 66 71 71 71 67 67 67 67 67 67 71 71 71 72 72 72 67 67 67 72 72 72 68 68 68 68 68 68 72 72 72 73 73 73 68 68 68 73 73 73 69 69 69 69 69 69 73 73 73 70 70 70 69 69 69 70 70 70 66 66 66 70 70 70 74 74 74 75 75 75 70 70 70 75 75 75 71 71 71 71 71 71 75 75 75 76 76 76 71 71 71 76 76 76 72 72 72 72 72 72 76 76 76 77 77 77 72 72 72 77 77 77 73 73 73 73 73 73 77 77 77 74 74 74 73 73 73 74 74 74 70 70 70 74 74 74 78 78 78 79 79 79 74 74 74 79 79 79 75 75 75 75 75 75 79 79 79 80 80 80 75 75 75 80 80 80 76 76 76 76 76 76 80 80 80 81 81 81 76 76 76 81 81 81 77 77 77 77 77 77 81 81 81 78 78 78 77 77 77 78 78 78 74 74 74 78 78 78 82 82 82 83 83 83 78 78 78 83 83 83 79 79 79 79 79 79 83 83 83 84 84 84 79 79 79 84 84 84 80 80 80 80 80 80 84 84 84 85 85 85 80 80 80 85 85 85 81 81 81 81 81 81 85 85 85 82 82 82 81 81 81 82 82 82 78 78 78 82 82 82 86 86 86 87 87 87 82 82 82 87 87 87 83 83 83 83 83 83 87 87 87 88 88 88 83 83 83 88 88 88 84 84 84 84 84 84 88 88 88 89 89 89 84 84 84 89 89 89 85 85 85 85 85 85 89 89 89 86 86 86 85 85 85 86 86 86 82 82 82 86 86 86 90 90 90 91 91 91 86 86 86 91 91 91 87 87 87 87 87 87 91 91 91 92 92 92 87 87 87 92 92 92 88 88 88 88 88 88 92 92 92 93 93 93 88 88 88 93 93 93 89 89 89 89 89 89 93 93 93 90 90 90 89 89 89 90 90 90 86 86 86 90 90 90 94 94 94 95 95 95 90 90 90 95 95 95 91 91 91 91 91 91 95 95 95 96 96 96 91 91 91 96 96 96 92 92 92 92 92 92 96 96 96 97 97 97 92 92 92 97 97 97 93 93 93 93 93 93 97 97 97 94 94 94 93 93 93 94 94 94 90 90 90 94 94 94 95 95 95 96 96 96 96 96 96 97 97 97 94 94 94 98 98 98 102 102 102 103 103 103 98 98 98 103 103 103 99 99 99 99 99 99 103 103 103 104 104 104 99 99 99 104 104 104 100 100 100 100 100 100 104 104 104 105 105 105 100 100 100 105 105 105 101 101 101 101 101 101 105 105 105 102 102 102 101 101 101 102 102 102 98 98 98 102 102 102 106 106 106 107 107 107 102 102 102 107 107 107 103 103 103 103 103 103 107 107 107 108 108 108 103 103 103 108 108 108 104 104 104 104 104 104 108 108 108 109 109 109 104 104 104 109 109 109 105 105 105 105 105 105 109 109 109 106 106 106 105 105 105 106 106 106 102 102 102 106 106 106 110 110 110 111 111 111 106 106 106 111 111 111 107 107 107 107 107 107 111 111 111 112 112 112 107 107 107 112 112 112 108 108 108 108 108 108 112 112 112 113 113 113 108 108 108 113 113 113 109 109 109 109 109 109 113 113 113 110 110 110 109 109 109 110 110 110 106 106 106 110 110 110 114 114 114 115 115 115 110 110 110 115 115 115 111 111 111 111 111 111 115 115 115 116 116 116 111 111 111 116 116 116 112 112 112 112 112 112 116 116 116 117 117 117 112 112 112 117 117 117 113 113 113 113 113 113 117 117 117 114 114 114 113 113 113 114 114 114 110 110 110 114 114 114 118 118 118 119 119 119 114 114 114 119 119 119 115 115 115 115 115 115 119 119 119 120 120 120 115 115 115 120 120 120 116 116 116 116 116 116 120 120 120 121 121 121 116 116 116 121 121 121 117 117 117 117 117 117 121 121 121 118 118 118 117 117 117 118 118 118 114 114 114 118 118 118 122 122 122 123 123 123 118 118 118 123 123 123 119 119 119 119 119 119 123 123 123 124 124 124 119 119 119 124 124 124 120 120 120 120 120 120 124 124 124 125 125 125 120 120 120 125 125 125 121 121 121 121 121 121 125 125 125 122 122 122 121 121 121 122 122 122 118 118 118 122 122 122 126 126 126 127 127 127 122 122 122 127 127 127 123 123 123 123 123 123 127 127 127 128 128 128 123 123 123 128 128 128 124 124 124 124 124 124 128 128 128 129 129 129 124 124 124 129 129 129 125 125 125 125 125 125 129 129 129 126 126 126 125 125 125 126 126 126 122 122 122 126 126 126 130 130 130 131 131 131 126 126 126 131 131 131 127 127 127 127 127 127 131 131 131 132 132 132 127 127 127 132 132 132 128 128 128 128 128 128 132 132 132 133 133 133 128 128 128 133 133 133 129 129 129 129 129 129 133 133 133 130 130 130 129 129 129 130 130 130 126 126 126 130 130 130 134 134 134 135 135 135 130 130 130 135 135 135 131 131 131 131 131 131 135 135 135 136 136 136 131 131 131 136 136 136 132 132 132 132 132 132 136 136 136 137 137 137 132 132 132 137 137 137 133 133 133 133 133 133 137 137 137 134 134 134 133 133 133 134 134 134 130 130 130 134 134 134 138 138 138 139 139 139 134 134 134 139 139 139 135 135 135 135 135 135 139 139 139 140 140 140 135 135 135 140 140 140 136 136 136 136 136 136 140 140 140 141 141 141 136 136 136 141 141 141 137 137 137 137 137 137 141 141 141 138 138 138 137 137 137 138 138 138 134 134 134 138 138 138 142 142 142 143 143 143 138 138 138 143 143 143 139 139 139 139 139 139 143 143 143 144 144 144 139 139 139 144 144 144 140 140 140 140 140 140 144 144 144 145 145 145 140 140 140 145 145 145 141 141 141 141 141 141 145 145 145 142 142 142 141 141 141 142 142 142 138 138 138 142 142 142 146 146 146 147 147 147 142 142 142 147 147 147 143 143 143 143 143 143 147 147 147 148 148 148 143 143 143 148 148 148 144 144 144 144 144 144 148 148 148 149 149 149 144 144 144 149 149 149 145 145 145 145 145 145 149 149 149 146 146 146 145 145 145 146 146 146 142 142 142 146 146 146 150 150 150 151 151 151 146 146 146 151 151 151 147 147 147 147 147 147 151 151 151 152 152 152 147 147 147 152 152 152 148 148 148 148 148 148 152 152 152 153 153 153 148 148 148 153 153 153 149 149 149 149 149 149 153 153 153 150 150 150 149 149 149 150 150 150 146 146 146 150 150 150 154 154 154 155 155 155 150 150 150 155 155 155 151 151 151 151 151 151 155 155 155 156 156 156 151 151 151 156 156 156 152 152 152 152 152 152 156 156 156 157 157 157 152 152 152 157 157 157 153 153 153 153 153 153 157 157 157 154 154 154 153 153 153 154 154 154 150 150 150 154 154 154 155 155 155 156 156 156 156 156 156 157 157 157 154 154 154 158 158 158 162 162 162 163 163 163 158 158 158 163 163 163 159 159 159 159 159 159 163 163 163 164 164 164 159 159 159 164 164 164 160 160 160 160 160 160 164 164 164 165 165 165 160 160 160 165 165 165 161 161 161 161 161 161 165 165 165 162 162 162 161 161 161 162 162 162 158 158 158 162 162 162 166 166 166 167 167 167 162 162 162 167 167 167 163 163 163 163 163 163 167 167 167 168 168 168 163 163 163 168 168 168 164 164 164 164 164 164 168 168 168 169 169 169 164 164 164 169 169 169 165 165 165 165 165 165 169 169 169 166 166 166 165 165 165 166 166 166 162 162 162 166 166 166 170 170 170 171 171 171 166 166 166 171 171 171 167 167 167 167 167 167 171 171 171 172 172 172 167 167 167 172 172 172 168 168 168 168 168 168 172 172 172 173 173 173 168 168 168 173 173 173 169 169 169 169 169 169 173 173 173 170 170 170 169 169 169 170 170 170 166 166 166 170 170 170 174 174 174 175 175 175 170 170 170 175 175 175 171 171 171 171 171 171 175 175 175 176 176 176 171 171 171 176 176 176 172 172 172 172 172 172 176 176 176 177 177 177 172 172 172 177 177 177 173 173 173 173 173 173 177 177 177 174 174 174 173 173 173 174 174 174 170 170 170 174 174 174 178 178 178 179 179 179 174 174 174 179 179 179 175 175 175 175 175 175 179 179 179 180 180 180 175 175 175 180 180 180 176 176 176 176 176 176 180 180 180 181 181 181 176 176 176 181 181 181 177 177 177 177 177 177 181 181 181 178 178 178 177 177 177 178 178 178 174 174 174 178 178 178 182 182 182 183 183 183 178 178 178 183 183 183 179 179 179 179 179 179 183 183 183 184 184 184 179 179 179 184 184 184 180 180 180 180 180 180 184 184 184 185 185 185 180 180 180 185 185 185 181 181 181 181 181 181 185 185 185 182 182 182 181 181 181 182 182 182 178 178 178 182 182 182 186 186 186 187 187 187 182 182 182 187 187 187 183 183 183 183 183 183 187 187 187 188 188 188 183 183 183 188 188 188 184 184 184 184 184 184 188 188 188 189 189 189 184 184 184 189 189 189 185 185 185 185 185 185 189 189 189 186 186 186 185 185 185 186 186 186 182 182 182 186 186 186 190 190 190 191 191 191 186 186 186 191 191 191 187 187 187 187 187 187 191 191 191 192 192 192 187 187 187 192 192 192 188 188 188 188 188 188 192 192 192 193 193 193 188 188 188 193 193 193 189 189 189 189 189 189 193 193 193 190 190 190 189 189 189 190 190 190 186 186 186 190 190 190 194 194 194 195 195 195 190 190 190 195 195 195 191 191 191 191 191 191 195 195 195 196 196 196 191 191 191 196 196 196 192 192 192 192 192 192 196 196 196 197 197 197 192 192 192 197 197 197 193 193 193 193 193 193 197 197 197 194 194 194 193 193 193 194 194 194 190 190 190 194 194 194 198 198 198 199 199 199 194 194 194 199 199 199 195 195 195 195 195 195 199 199 199 200 200 200 195 195 195 200 200 200 196 196 196 196 196 196 200 200 200 201 201 201 196 196 196 201 201 201 197 197 197 197 197 197 201 201 201 198 198 198 197 197 197 198 198 198 194 194 194 198 198 198 202 202 202 203 203 203 198 198 198 203 203 203 199 199 199 199 199 199 203 203 203 204 204 204 199 199 199 204 204 204 200 200 200 200 200 200 204 204 204 205 205 205 200 200 200 205 205 205 201 201 201 201 201 201 205 205 205 202 202 202 201 201 201 202 202 202 198 198 198 202 202 202 206 206 206 207 207 207 202 202 202 207 207 207 203 203 203 203 203 203 207 207 207 208 208 208 203 203 203 208 208 208 204 204 204 204 204 204 208 208 208 209 209 209 204 204 204 209 209 209 205 205 205 205 205 205 209 209 209 206 206 206 205 205 205 206 206 206 202 202 202 206 206 206 210 210 210 211 211 211 206 206 206 211 211 211 207 207 207 207 207 207 211 211 211 212 212 212 207 207 207 212 212 212 208 208 208 208 208 208 212 212 212 213 213 213 208 208 208 213 213 213 209 209 209 209 209 209 213 213 213 210 210 210 209 209 209 210 210 210 206 206 206 210 210 210 214 214 214 215 215 215 210 210 210 215 215 215 211 211 211 211 211 211 215 215 215 216 216 216 211 211 211 216 216 216 212 212 212 212 212 212 216 216 216 217 217 217 212 212 212 217 217 217 213 213 213 213 213 213 217 217 217 214 214 214 213 213 213 214 214 214 210 210 210 214 214 214 215 215 215 216 216 216 216 216 216 217 217 217 214 214 214</p>
        </polylist>
      </mesh>
    </geometry>
  </library_geometries>
  <library_visual_scenes>
    <visual_scene id="Scene" name="Scene">
      <node id="CinewhoopPropCW-node" name="CinewhoopPropCW" type="NODE">
        <instance_geometry url="#CinewhoopPropCW-mesh"/>
      </node>
    </visual_scene>
  </library_visual_scenes>
  <scene>
    <instance_visual_scene url="#Scene"/>
  </scene>
</COLLADA>