# Cinewhoop Ducted Frame with Multi-Materials
mtllib cinewhoop_frame.mtl
v 0.250000 -0.220000 0.035000
v 0.256000 -0.220000 0.035000
v 0.250000 -0.220000 0.005000
v 0.256000 -0.220000 0.005000
v 0.248177 -0.199162 0.035000
v 0.254086 -0.198120 0.035000
v 0.248177 -0.199162 0.005000
v 0.254086 -0.198120 0.005000
v 0.242763 -0.178958 0.035000
v 0.248401 -0.176905 0.035000
v 0.242763 -0.178958 0.005000
v 0.248401 -0.176905 0.005000
v 0.233923 -0.160000 0.035000
v 0.239119 -0.157000 0.035000
v 0.233923 -0.160000 0.005000
v 0.239119 -0.157000 0.005000
v 0.221925 -0.142865 0.035000
v 0.226522 -0.139009 0.035000
v 0.221925 -0.142865 0.005000
v 0.226522 -0.139009 0.005000
v 0.207135 -0.128075 0.035000
v 0.210991 -0.123478 0.035000
v 0.207135 -0.128075 0.005000
v 0.210991 -0.123478 0.005000
v 0.190000 -0.116077 0.035000
v 0.193000 -0.110881 0.035000
v 0.190000 -0.116077 0.005000
v 0.193000 -0.110881 0.005000
v 0.171042 -0.107237 0.035000
v 0.173095 -0.101599 0.035000
v 0.171042 -0.107237 0.005000
v 0.173095 -0.101599 0.005000
v 0.150838 -0.101823 0.035000
v 0.151880 -0.095914 0.035000
v 0.150838 -0.101823 0.005000
v 0.151880 -0.095914 0.005000
v 0.130000 -0.100000 0.035000
v 0.130000 -0.094000 0.035000
v 0.130000 -0.100000 0.005000
v 0.130000 -0.094000 0.005000
v 0.109162 -0.101823 0.035000
v 0.108120 -0.095914 0.035000
v 0.109162 -0.101823 0.005000
v 0.108120 -0.095914 0.005000
v 0.088958 -0.107237 0.035000
v 0.086905 -0.101599 0.035000
v 0.088958 -0.107237 0.005000
v 0.086905 -0.101599 0.005000
v 0.070000 -0.116077 0.035000
v 0.067000 -0.110881 0.035000
v 0.070000 -0.116077 0.005000
v 0.067000 -0.110881 0.005000
v 0.052865 -0.128075 0.035000
v 0.049009 -0.123478 0.035000
v 0.052865 -0.128075 0.005000
v 0.049009 -0.123478 0.005000
v 0.038075 -0.142865 0.035000
v 0.033478 -0.139009 0.035000
v 0.038075 -0.142865 0.005000
v 0.033478 -0.139009 0.005000
v 0.026077 -0.160000 0.035000
v 0.020881 -0.157000 0.035000
v 0.026077 -0.160000 0.005000
v 0.020881 -0.157000 0.005000
v 0.017237 -0.178958 0.035000
v 0.011599 -0.176905 0.035000
v 0.017237 -0.178958 0.005000
v 0.011599 -0.176905 0.005000
v 0.011823 -0.199162 0.035000
v 0.005914 -0.198120 0.035000
v 0.011823 -0.199162 0.005000
v 0.005914 -0.198120 0.005000
v 0.010000 -0.220000 0.035000
v 0.004000 -0.220000 0.035000
v 0.010000 -0.220000 0.005000
v 0.004000 -0.220000 0.005000
v 0.011823 -0.240838 0.035000
v 0.005914 -0.241880 0.035000
v 0.011823 -0.240838 0.005000
v 0.005914 -0.241880 0.005000
v 0.017237 -0.261042 0.035000
v 0.011599 -0.263095 0.035000
v 0.017237 -0.261042 0.005000
v 0.011599 -0.263095 0.005000
v 0.026077 -0.280000 0.035000
v 0.020881 -0.283000 0.035000
v 0.026077 -0.280000 0.005000
v 0.020881 -0.283000 0.005000
v 0.038075 -0.297135 0.035000
v 0.033478 -0.300991 0.035000
v 0.038075 -0.297135 0.005000
v 0.033478 -0.300991 0.005000
v 0.052865 -0.311925 0.035000
v 0.049009 -0.316522 0.035000
v 0.052865 -0.311925 0.005000
v 0.049009 -0.316522 0.005000
v 0.070000 -0.323923 0.035000
v 0.067000 -0.329119 0.035000
v 0.070000 -0.323923 0.005000
v 0.067000 -0.329119 0.005000
v 0.088958 -0.332763 0.035000
v 0.086905 -0.338401 0.035000
v 0.088958 -0.332763 0.005000
v 0.086905 -0.338401 0.005000
v 0.109162 -0.338177 0.035000
v 0.108120 -0.344086 0.035000
v 0.109162 -0.338177 0.005000
v 0.108120 -0.344086 0.005000
v 0.130000 -0.340000 0.035000
v 0.130000 -0.346000 0.035000
v 0.130000 -0.340000 0.005000
v 0.130000 -0.346000 0.005000
v 0.150838 -0.338177 0.035000
v 0.151880 -0.344086 0.035000
v 0.150838 -0.338177 0.005000
v 0.151880 -0.344086 0.005000
v 0.171042 -0.332763 0.035000
v 0.173095 -0.338401 0.035000
v 0.171042 -0.332763 0.005000
v 0.173095 -0.338401 0.005000
v 0.190000 -0.323923 0.035000
v 0.193000 -0.329119 0.035000
v 0.190000 -0.323923 0.005000
v 0.193000 -0.329119 0.005000
v 0.207135 -0.311925 0.035000
v 0.210991 -0.316522 0.035000
v 0.207135 -0.311925 0.005000
v 0.210991 -0.316522 0.005000
v 0.221925 -0.297135 0.035000
v 0.226522 -0.300991 0.035000
v 0.221925 -0.297135 0.005000
v 0.226522 -0.300991 0.005000
v 0.233923 -0.280000 0.035000
v 0.239119 -0.283000 0.035000
v 0.233923 -0.280000 0.005000
v 0.239119 -0.283000 0.005000
v 0.242763 -0.261042 0.035000
v 0.248401 -0.263095 0.035000
v 0.242763 -0.261042 0.005000
v 0.248401 -0.263095 0.005000
v 0.248177 -0.240838 0.035000
v 0.254086 -0.241880 0.035000
v 0.248177 -0.240838 0.005000
v 0.254086 -0.241880 0.005000
v 0.130000 -0.223000 0.004500
v 0.250000 -0.223000 0.004500
v 0.250000 -0.217000 0.004500
v 0.130000 -0.217000 0.004500
v 0.130000 -0.223000 0.007500
v 0.250000 -0.223000 0.007500
v 0.250000 -0.217000 0.007500
v 0.130000 -0.217000 0.007500
v 0.132598 -0.218500 0.004500
v 0.072598 -0.114577 0.004500
v 0.067402 -0.117577 0.004500
v 0.127402 -0.221500 0.004500
v 0.132598 -0.218500 0.007500
v 0.072598 -0.114577 0.007500
v 0.067402 -0.117577 0.007500
v 0.127402 -0.221500 0.007500
v 0.127402 -0.218500 0.004500
v 0.067402 -0.322423 0.004500
v 0.072598 -0.325423 0.004500
v 0.132598 -0.221500 0.004500
v 0.127402 -0.218500 0.007500
v 0.067402 -0.322423 0.007500
v 0.072598 -0.325423 0.007500
v 0.132598 -0.221500 0.007500
v -0.010000 0.200000 0.035000
v -0.004000 0.200000 0.035000
v -0.010000 0.200000 0.005000
v -0.004000 0.200000 0.005000
v -0.011823 0.220838 0.035000
v -0.005914 0.221880 0.035000
v -0.011823 0.220838 0.005000
v -0.005914 0.221880 0.005000
v -0.017237 0.241042 0.035000
v -0.011599 0.243095 0.035000
v -0.017237 0.241042 0.005000
v -0.011599 0.243095 0.005000
v -0.026077 0.260000 0.035000
v -0.020881 0.263000 0.035000
v -0.026077 0.260000 0.005000
v -0.020881 0.263000 0.005000
v -0.038075 0.277135 0.035000
v -0.033478 0.280991 0.035000
v -0.038075 0.277135 0.005000
v -0.033478 0.280991 0.005000
v -0.052865 0.291925 0.035000
v -0.049009 0.296522 0.035000
v -0.052865 0.291925 0.005000
v -0.049009 0.296522 0.005000
v -0.070000 0.303923 0.035000
v -0.067000 0.309119 0.035000
v -0.070000 0.303923 0.005000
v -0.067000 0.309119 0.005000
v -0.088958 0.312763 0.035000
v -0.086905 0.318401 0.035000
v -0.088958 0.312763 0.005000
v -0.086905 0.318401 0.005000
v -0.109162 0.318177 0.035000
v -0.108120 0.324086 0.035000
v -0.109162 0.318177 0.005000
v -0.108120 0.324086 0.005000
v -0.130000 0.320000 0.035000
v -0.130000 0.326000 0.035000
v -0.130000 0.320000 0.005000
v -0.130000 0.326000 0.005000
v -0.150838 0.318177 0.035000
v -0.151880 0.324086 0.035000
v -0.150838 0.318177 0.005000
v -0.151880 0.324086 0.005000
v -0.171042 0.312763 0.035000
v -0.173095 0.318401 0.035000
v -0.171042 0.312763 0.005000
v -0.173095 0.318401 0.005000
v -0.190000 0.303923 0.035000
v -0.193000 0.309119 0.035000
v -0.190000 0.303923 0.005000
v -0.193000 0.309119 0.005000
v -0.207135 0.291925 0.035000
v -0.210991 0.296522 0.035000
v -0.207135 0.291925 0.005000
v -0.210991 0.296522 0.005000
v -0.221925 0.277135 0.035000
v -0.226522 0.280991 0.035000
v -0.221925 0.277135 0.005000
v -0.226522 0.280991 0.005000
v -0.233923 0.260000 0.035000
v -0.239119 0.263000 0.035000
v -0.233923 0.260000 0.005000
v -0.239119 0.263000 0.005000
v -0.242763 0.241042 0.035000
v -0.248401 0.243095 0.035000
v -0.242763 0.241042 0.005000
v -0.248401 0.243095 0.005000
v -0.248177 0.220838 0.035000
v -0.254086 0.221880 0.035000
v -0.248177 0.220838 0.005000
v -0.254086 0.221880 0.005000
v -0.250000 0.200000 0.035000
v -0.256000 0.200000 0.035000
v -0.250000 0.200000 0.005000
v -0.256000 0.200000 0.005000
v -0.248177 0.179162 0.035000
v -0.254086 0.178120 0.035000
v -0.248177 0.179162 0.005000
v -0.254086 0.178120 0.005000
v -0.242763 0.158958 0.035000
v -0.248401 0.156905 0.035000
v -0.242763 0.158958 0.005000
v -0.248401 0.156905 0.005000
v -0.233923 0.140000 0.035000
v -0.239119 0.137000 0.035000
v -0.233923 0.140000 0.005000
v -0.239119 0.137000 0.005000
v -0.221925 0.122865 0.035000
v -0.226522 0.119009 0.035000
v -0.221925 0.122865 0.005000
v -0.226522 0.119009 0.005000
v -0.207135 0.108075 0.035000
v -0.210991 0.103478 0.035000
v -0.207135 0.108075 0.005000
v -0.210991 0.103478 0.005000
v -0.190000 0.096077 0.035000
v -0.193000 0.090881 0.035000
v -0.190000 0.096077 0.005000
v -0.193000 0.090881 0.005000
v -0.171042 0.087237 0.035000
v -0.173095 0.081599 0.035000
v -0.171042 0.087237 0.005000
v -0.173095 0.081599 0.005000
v -0.150838 0.081823 0.035000
v -0.151880 0.075914 0.035000
v -0.150838 0.081823 0.005000
v -0.151880 0.075914 0.005000
v -0.130000 0.080000 0.035000
v -0.130000 0.074000 0.035000
v -0.130000 0.080000 0.005000
v -0.130000 0.074000 0.005000
v -0.109162 0.081823 0.035000
v -0.108120 0.075914 0.035000
v -0.109162 0.081823 0.005000
v -0.108120 0.075914 0.005000
v -0.088958 0.087237 0.035000
v -0.086905 0.081599 0.035000
v -0.088958 0.087237 0.005000
v -0.086905 0.081599 0.005000
v -0.070000 0.096077 0.035000
v -0.067000 0.090881 0.035000
v -0.070000 0.096077 0.005000
v -0.067000 0.090881 0.005000
v -0.052865 0.108075 0.035000
v -0.049009 0.103478 0.035000
v -0.052865 0.108075 0.005000
v -0.049009 0.103478 0.005000
v -0.038075 0.122865 0.035000
v -0.033478 0.119009 0.035000
v -0.038075 0.122865 0.005000
v -0.033478 0.119009 0.005000
v -0.026077 0.140000 0.035000
v -0.020881 0.137000 0.035000
v -0.026077 0.140000 0.005000
v -0.020881 0.137000 0.005000
v -0.017237 0.158958 0.035000
v -0.011599 0.156905 0.035000
v -0.017237 0.158958 0.005000
v -0.011599 0.156905 0.005000
v -0.011823 0.179162 0.035000
v -0.005914 0.178120 0.035000
v -0.011823 0.179162 0.005000
v -0.005914 0.178120 0.005000
v -0.130000 0.197000 0.004500
v -0.010000 0.197000 0.004500
v -0.010000 0.203000 0.004500
v -0.130000 0.203000 0.004500
v -0.130000 0.197000 0.007500
v -0.010000 0.197000 0.007500
v -0.010000 0.203000 0.007500
v -0.130000 0.203000 0.007500
v -0.127402 0.201500 0.004500
v -0.187402 0.305423 0.004500
v -0.192598 0.302423 0.004500
v -0.132598 0.198500 0.004500
v -0.127402 0.201500 0.007500
v -0.187402 0.305423 0.007500
v -0.192598 0.302423 0.007500
v -0.132598 0.198500 0.007500
v -0.132598 0.201500 0.004500
v -0.192598 0.097577 0.004500
v -0.187402 0.094577 0.004500
v -0.127402 0.198500 0.004500
v -0.132598 0.201500 0.007500
v -0.192598 0.097577 0.007500
v -0.187402 0.094577 0.007500
v -0.127402 0.198500 0.007500
v 0.250000 0.220000 0.035000
v 0.256000 0.220000 0.035000
v 0.250000 0.220000 0.005000
v 0.256000 0.220000 0.005000
v 0.248177 0.240838 0.035000
v 0.254086 0.241880 0.035000
v 0.248177 0.240838 0.005000
v 0.254086 0.241880 0.005000
v 0.242763 0.261042 0.035000
v 0.248401 0.263095 0.035000
v 0.242763 0.261042 0.005000
v 0.248401 0.263095 0.005000
v 0.233923 0.280000 0.035000
v 0.239119 0.283000 0.035000
v 0.233923 0.280000 0.005000
v 0.239119 0.283000 0.005000
v 0.221925 0.297135 0.035000
v 0.226522 0.300991 0.035000
v 0.221925 0.297135 0.005000
v 0.226522 0.300991 0.005000
v 0.207135 0.311925 0.035000
v 0.210991 0.316522 0.035000
v 0.207135 0.311925 0.005000
v 0.210991 0.316522 0.005000
v 0.190000 0.323923 0.035000
v 0.193000 0.329119 0.035000
v 0.190000 0.323923 0.005000
v 0.193000 0.329119 0.005000
v 0.171042 0.332763 0.035000
v 0.173095 0.338401 0.035000
v 0.171042 0.332763 0.005000
v 0.173095 0.338401 0.005000
v 0.150838 0.338177 0.035000
v 0.151880 0.344086 0.035000
v 0.150838 0.338177 0.005000
v 0.151880 0.344086 0.005000
v 0.130000 0.340000 0.035000
v 0.130000 0.346000 0.035000
v 0.130000 0.340000 0.005000
v 0.130000 0.346000 0.005000
v 0.109162 0.338177 0.035000
v 0.108120 0.344086 0.035000
v 0.109162 0.338177 0.005000
v 0.108120 0.344086 0.005000
v 0.088958 0.332763 0.035000
v 0.086905 0.338401 0.035000
v 0.088958 0.332763 0.005000
v 0.086905 0.338401 0.005000
v 0.070000 0.323923 0.035000
v 0.067000 0.329119 0.035000
v 0.070000 0.323923 0.005000
v 0.067000 0.329119 0.005000
v 0.052865 0.311925 0.035000
v 0.049009 0.316522 0.035000
v 0.052865 0.311925 0.005000
v 0.049009 0.316522 0.005000
v 0.038075 0.297135 0.035000
v 0.033478 0.300991 0.035000
v 0.038075 0.297135 0.005000
v 0.033478 0.300991 0.005000
v 0.026077 0.280000 0.035000
v 0.020881 0.283000 0.035000
v 0.026077 0.280000 0.005000
v 0.020881 0.283000 0.005000
v 0.017237 0.261042 0.035000
v 0.011599 0.263095 0.035000
v 0.017237 0.261042 0.005000
v 0.011599 0.263095 0.005000
v 0.011823 0.240838 0.035000
v 0.005914 0.241880 0.035000
v 0.011823 0.240838 0.005000
v 0.005914 0.241880 0.005000
v 0.010000 0.220000 0.035000
v 0.004000 0.220000 0.035000
v 0.010000 0.220000 0.005000
v 0.004000 0.220000 0.005000
v 0.011823 0.199162 0.035000
v 0.005914 0.198120 0.035000
v 0.011823 0.199162 0.005000
v 0.005914 0.198120 0.005000
v 0.017237 0.178958 0.035000
v 0.011599 0.176905 0.035000
v 0.017237 0.178958 0.005000
v 0.011599 0.176905 0.005000
v 0.026077 0.160000 0.035000
v 0.020881 0.157000 0.035000
v 0.026077 0.160000 0.005000
v 0.020881 0.157000 0.005000
v 0.038075 0.142865 0.035000
v 0.033478 0.139009 0.035000
v 0.038075 0.142865 0.005000
v 0.033478 0.139009 0.005000
v 0.052865 0.128075 0.035000
v 0.049009 0.123478 0.035000
v 0.052865 0.128075 0.005000
v 0.049009 0.123478 0.005000
v 0.070000 0.116077 0.035000
v 0.067000 0.110881 0.035000
v 0.070000 0.116077 0.005000
v 0.067000 0.110881 0.005000
v 0.088958 0.107237 0.035000
v 0.086905 0.101599 0.035000
v 0.088958 0.107237 0.005000
v 0.086905 0.101599 0.005000
v 0.109162 0.101823 0.035000
v 0.108120 0.095914 0.035000
v 0.109162 0.101823 0.005000
v 0.108120 0.095914 0.005000
v 0.130000 0.100000 0.035000
v 0.130000 0.094000 0.035000
v 0.130000 0.100000 0.005000
v 0.130000 0.094000 0.005000
v 0.150838 0.101823 0.035000
v 0.151880 0.095914 0.035000
v 0.150838 0.101823 0.005000
v 0.151880 0.095914 0.005000
v 0.171042 0.107237 0.035000
v 0.173095 0.101599 0.035000
v 0.171042 0.107237 0.005000
v 0.173095 0.101599 0.005000
v 0.190000 0.116077 0.035000
v 0.193000 0.110881 0.035000
v 0.190000 0.116077 0.005000
v 0.193000 0.110881 0.005000
v 0.207135 0.128075 0.035000
v 0.210991 0.123478 0.035000
v 0.207135 0.128075 0.005000
v 0.210991 0.123478 0.005000
v 0.221925 0.142865 0.035000
v 0.226522 0.139009 0.035000
v 0.221925 0.142865 0.005000
v 0.226522 0.139009 0.005000
v 0.233923 0.160000 0.035000
v 0.239119 0.157000 0.035000
v 0.233923 0.160000 0.005000
v 0.239119 0.157000 0.005000
v 0.242763 0.178958 0.035000
v 0.248401 0.176905 0.035000
v 0.242763 0.178958 0.005000
v 0.248401 0.176905 0.005000
v 0.248177 0.199162 0.035000
v 0.254086 0.198120 0.035000
v 0.248177 0.199162 0.005000
v 0.254086 0.198120 0.005000
v 0.130000 0.217000 0.004500
v 0.250000 0.217000 0.004500
v 0.250000 0.223000 0.004500
v 0.130000 0.223000 0.004500
v 0.130000 0.217000 0.007500
v 0.250000 0.217000 0.007500
v 0.250000 0.223000 0.007500
v 0.130000 0.223000 0.007500
v 0.132598 0.221500 0.004500
v 0.072598 0.325423 0.004500
v 0.067402 0.322423 0.004500
v 0.127402 0.218500 0.004500
v 0.132598 0.221500 0.007500
v 0.072598 0.325423 0.007500
v 0.067402 0.322423 0.007500
v 0.127402 0.218500 0.007500
v 0.127402 0.221500 0.004500
v 0.067402 0.117577 0.004500
v 0.072598 0.114577 0.004500
v 0.132598 0.218500 0.004500
v 0.127402 0.221500 0.007500
v 0.067402 0.117577 0.007500
v 0.072598 0.114577 0.007500
v 0.132598 0.218500 0.007500
v -0.010000 -0.200000 0.035000
v -0.004000 -0.200000 0.035000
v -0.010000 -0.200000 0.005000
v -0.004000 -0.200000 0.005000
v -0.011823 -0.179162 0.035000
v -0.005914 -0.178120 0.035000
v -0.011823 -0.179162 0.005000
v -0.005914 -0.178120 0.005000
v -0.017237 -0.158958 0.035000
v -0.011599 -0.156905 0.035000
v -0.017237 -0.158958 0.005000
v -0.011599 -0.156905 0.005000
v -0.026077 -0.140000 0.035000
v -0.020881 -0.137000 0.035000
v -0.026077 -0.140000 0.005000
v -0.020881 -0.137000 0.005000
v -0.038075 -0.122865 0.035000
v -0.033478 -0.119009 0.035000
v -0.038075 -0.122865 0.005000
v -0.033478 -0.119009 0.005000
v -0.052865 -0.108075 0.035000
v -0.049009 -0.103478 0.035000
v -0.052865 -0.108075 0.005000
v -0.049009 -0.103478 0.005000
v -0.070000 -0.096077 0.035000
v -0.067000 -0.090881 0.035000
v -0.070000 -0.096077 0.005000
v -0.067000 -0.090881 0.005000
v -0.088958 -0.087237 0.035000
v -0.086905 -0.081599 0.035000
v -0.088958 -0.087237 0.005000
v -0.086905 -0.081599 0.005000
v -0.109162 -0.081823 0.035000
v -0.108120 -0.075914 0.035000
v -0.109162 -0.081823 0.005000
v -0.108120 -0.075914 0.005000
v -0.130000 -0.080000 0.035000
v -0.130000 -0.074000 0.035000
v -0.130000 -0.080000 0.005000
v -0.130000 -0.074000 0.005000
v -0.150838 -0.081823 0.035000
v -0.151880 -0.075914 0.035000
v -0.150838 -0.081823 0.005000
v -0.151880 -0.075914 0.005000
v -0.171042 -0.087237 0.035000
v -0.173095 -0.081599 0.035000
v -0.171042 -0.087237 0.005000
v -0.173095 -0.081599 0.005000
v -0.190000 -0.096077 0.035000
v -0.193000 -0.090881 0.035000
v -0.190000 -0.096077 0.005000
v -0.193000 -0.090881 0.005000
v -0.207135 -0.108075 0.035000
v -0.210991 -0.103478 0.035000
v -0.207135 -0.108075 0.005000
v -0.210991 -0.103478 0.005000
v -0.221925 -0.122865 0.035000
v -0.226522 -0.119009 0.035000
v -0.221925 -0.122865 0.005000
v -0.226522 -0.119009 0.005000
v -0.233923 -0.140000 0.035000
v -0.239119 -0.137000 0.035000
v -0.233923 -0.140000 0.005000
v -0.239119 -0.137000 0.005000
v -0.242763 -0.158958 0.035000
v -0.248401 -0.156905 0.035000
v -0.242763 -0.158958 0.005000
v -0.248401 -0.156905 0.005000
v -0.248177 -0.179162 0.035000
v -0.254086 -0.178120 0.035000
v -0.248177 -0.179162 0.005000
v -0.254086 -0.178120 0.005000
v -0.250000 -0.200000 0.035000
v -0.256000 -0.200000 0.035000
v -0.250000 -0.200000 0.005000
v -0.256000 -0.200000 0.005000
v -0.248177 -0.220838 0.035000
v -0.254086 -0.221880 0.035000
v -0.248177 -0.220838 0.005000
v -0.254086 -0.221880 0.005000
v -0.242763 -0.241042 0.035000
v -0.248401 -0.243095 0.035000
v -0.242763 -0.241042 0.005000
v -0.248401 -0.243095 0.005000
v -0.233923 -0.260000 0.035000
v -0.239119 -0.263000 0.035000
v -0.233923 -0.260000 0.005000
v -0.239119 -0.263000 0.005000
v -0.221925 -0.277135 0.035000
v -0.226522 -0.280991 0.035000
v -0.221925 -0.277135 0.005000
v -0.226522 -0.280991 0.005000
v -0.207135 -0.291925 0.035000
v -0.210991 -0.296522 0.035000
v -0.207135 -0.291925 0.005000
v -0.210991 -0.296522 0.005000
v -0.190000 -0.303923 0.035000
v -0.193000 -0.309119 0.035000
v -0.190000 -0.303923 0.005000
v -0.193000 -0.309119 0.005000
v -0.171042 -0.312763 0.035000
v -0.173095 -0.318401 0.035000
v -0.171042 -0.312763 0.005000
v -0.173095 -0.318401 0.005000
v -0.150838 -0.318177 0.035000
v -0.151880 -0.324086 0.035000
v -0.150838 -0.318177 0.005000
v -0.151880 -0.324086 0.005000
v -0.130000 -0.320000 0.035000
v -0.130000 -0.326000 0.035000
v -0.130000 -0.320000 0.005000
v -0.130000 -0.326000 0.005000
v -0.109162 -0.318177 0.035000
v -0.108120 -0.324086 0.035000
v -0.109162 -0.318177 0.005000
v -0.108120 -0.324086 0.005000
v -0.088958 -0.312763 0.035000
v -0.086905 -0.318401 0.035000
v -0.088958 -0.312763 0.005000
v -0.086905 -0.318401 0.005000
v -0.070000 -0.303923 0.035000
v -0.067000 -0.309119 0.035000
v -0.070000 -0.303923 0.005000
v -0.067000 -0.309119 0.005000
v -0.052865 -0.291925 0.035000
v -0.049009 -0.296522 0.035000
v -0.052865 -0.291925 0.005000
v -0.049009 -0.296522 0.005000
v -0.038075 -0.277135 0.035000
v -0.033478 -0.280991 0.035000
v -0.038075 -0.277135 0.005000
v -0.033478 -0.280991 0.005000
v -0.026077 -0.260000 0.035000
v -0.020881 -0.263000 0.035000
v -0.026077 -0.260000 0.005000
v -0.020881 -0.263000 0.005000
v -0.017237 -0.241042 0.035000
v -0.011599 -0.243095 0.035000
v -0.017237 -0.241042 0.005000
v -0.011599 -0.243095 0.005000
v -0.011823 -0.220838 0.035000
v -0.005914 -0.221880 0.035000
v -0.011823 -0.220838 0.005000
v -0.005914 -0.221880 0.005000
v -0.130000 -0.203000 0.004500
v -0.010000 -0.203000 0.004500
v -0.010000 -0.197000 0.004500
v -0.130000 -0.197000 0.004500
v -0.130000 -0.203000 0.007500
v -0.010000 -0.203000 0.007500
v -0.010000 -0.197000 0.007500
v -0.130000 -0.197000 0.007500
v -0.127402 -0.198500 0.004500
v -0.187402 -0.094577 0.004500
v -0.192598 -0.097577 0.004500
v -0.132598 -0.201500 0.004500
v -0.127402 -0.198500 0.007500
v -0.187402 -0.094577 0.007500
v -0.192598 -0.097577 0.007500
v -0.132598 -0.201500 0.007500
v -0.132598 -0.198500 0.004500
v -0.192598 -0.302423 0.004500
v -0.187402 -0.305423 0.004500
v -0.127402 -0.201500 0.004500
v -0.132598 -0.198500 0.007500
v -0.192598 -0.302423 0.007500
v -0.187402 -0.305423 0.007500
v -0.127402 -0.201500 0.007500
v 0.126000 -0.090000 0.015000
v 0.134000 -0.090000 0.015000
v 0.134000 0.090000 0.015000
v 0.126000 0.090000 0.015000
v 0.126000 -0.090000 0.025000
v 0.134000 -0.090000 0.025000
v 0.134000 0.090000 0.025000
v 0.126000 0.090000 0.025000
v -0.134000 -0.090000 0.015000
v -0.126000 -0.090000 0.015000
v -0.126000 0.090000 0.015000
v -0.134000 0.090000 0.015000
v -0.134000 -0.090000 0.025000
v -0.126000 -0.090000 0.025000
v -0.126000 0.090000 0.025000
v -0.134000 0.090000 0.025000
v -0.090000 0.206000 0.015000
v 0.090000 0.206000 0.015000
v 0.090000 0.214000 0.015000
v -0.090000 0.214000 0.015000
v -0.090000 0.206000 0.025000
v 0.090000 0.206000 0.025000
v 0.090000 0.214000 0.025000
v -0.090000 0.214000 0.025000
v -0.090000 -0.214000 0.015000
v 0.090000 -0.214000 0.015000
v 0.090000 -0.206000 0.015000
v -0.090000 -0.206000 0.015000
v -0.090000 -0.214000 0.025000
v 0.090000 -0.214000 0.025000
v 0.090000 -0.206000 0.025000
v -0.090000 -0.206000 0.025000
v -0.090000 -0.050000 -0.003500
v 0.090000 -0.050000 -0.003500
v 0.090000 0.050000 -0.003500
v -0.090000 0.050000 -0.003500
v -0.090000 -0.050000 -0.000500
v 0.090000 -0.050000 -0.000500
v 0.090000 0.050000 -0.000500
v -0.090000 0.050000 -0.000500
v -0.010331 -0.006105 -0.004000
v 0.119669 -0.226105 -0.004000
v 0.140331 -0.213895 -0.004000
v 0.010331 0.006105 -0.004000
v -0.010331 -0.006105 0.000000
v 0.119669 -0.226105 0.000000
v 0.140331 -0.213895 0.000000
v 0.010331 0.006105 0.000000
v 0.010061 0.006540 -0.004000
v -0.119939 0.206540 -0.004000
v -0.140061 0.193460 -0.004000
v -0.010061 -0.006540 -0.004000
v 0.010061 0.006540 0.000000
v -0.119939 0.206540 0.000000
v -0.140061 0.193460 0.000000
v -0.010061 -0.006540 0.000000
v 0.010331 -0.006105 -0.004000
v 0.140331 0.213895 -0.004000
v 0.119669 0.226105 -0.004000
v -0.010331 0.006105 -0.004000
v 0.010331 -0.006105 0.000000
v 0.140331 0.213895 0.000000
v 0.119669 0.226105 0.000000
v -0.010331 0.006105 0.000000
v -0.010061 0.006540 -0.004000
v -0.140061 -0.193460 -0.004000
v -0.119939 -0.206540 -0.004000
v 0.010061 -0.006540 -0.004000
v -0.010061 0.006540 0.000000
v -0.140061 -0.193460 0.000000
v -0.119939 -0.206540 0.000000
v 0.010061 -0.006540 0.000000
v -0.080000 -0.035000 0.026750
v 0.080000 -0.035000 0.026750
v 0.080000 0.035000 0.026750
v -0.080000 0.035000 0.026750
v -0.080000 -0.035000 0.029250
v 0.080000 -0.035000 0.029250
v 0.080000 0.035000 0.029250
v -0.080000 0.035000 0.029250
v 0.130000 -0.220000 0.016000
v 0.130000 -0.220000 -0.012000
v 0.145000 -0.220000 0.016000
v 0.145000 -0.220000 -0.012000
v 0.144266 -0.215365 0.016000
v 0.144266 -0.215365 -0.012000
v 0.142135 -0.211183 0.016000
v 0.142135 -0.211183 -0.012000
v 0.138817 -0.207865 0.016000
v 0.138817 -0.207865 -0.012000
v 0.134635 -0.205734 0.016000
v 0.134635 -0.205734 -0.012000
v 0.130000 -0.205000 0.016000
v 0.130000 -0.205000 -0.012000
v 0.125365 -0.205734 0.016000
v 0.125365 -0.205734 -0.012000
v 0.121183 -0.207865 0.016000
v 0.121183 -0.207865 -0.012000
v 0.117865 -0.211183 0.016000
v 0.117865 -0.211183 -0.012000
v 0.115734 -0.215365 0.016000
v 0.115734 -0.215365 -0.012000
v 0.115000 -0.220000 0.016000
v 0.115000 -0.220000 -0.012000
v 0.115734 -0.224635 0.016000
v 0.115734 -0.224635 -0.012000
v 0.117865 -0.228817 0.016000
v 0.117865 -0.228817 -0.012000
v 0.121183 -0.232135 0.016000
v 0.121183 -0.232135 -0.012000
v 0.125365 -0.234266 0.016000
v 0.125365 -0.234266 -0.012000
v 0.130000 -0.235000 0.016000
v 0.130000 -0.235000 -0.012000
v 0.134635 -0.234266 0.016000
v 0.134635 -0.234266 -0.012000
v 0.138817 -0.232135 0.016000
v 0.138817 -0.232135 -0.012000
v 0.142135 -0.228817 0.016000
v 0.142135 -0.228817 -0.012000
v 0.144266 -0.224635 0.016000
v 0.144266 -0.224635 -0.012000
v -0.130000 0.200000 0.016000
v -0.130000 0.200000 -0.012000
v -0.115000 0.200000 0.016000
v -0.115000 0.200000 -0.012000
v -0.115734 0.204635 0.016000
v -0.115734 0.204635 -0.012000
v -0.117865 0.208817 0.016000
v -0.117865 0.208817 -0.012000
v -0.121183 0.212135 0.016000
v -0.121183 0.212135 -0.012000
v -0.125365 0.214266 0.016000
v -0.125365 0.214266 -0.012000
v -0.130000 0.215000 0.016000
v -0.130000 0.215000 -0.012000
v -0.134635 0.214266 0.016000
v -0.134635 0.214266 -0.012000
v -0.138817 0.212135 0.016000
v -0.138817 0.212135 -0.012000
v -0.142135 0.208817 0.016000
v -0.142135 0.208817 -0.012000
v -0.144266 0.204635 0.016000
v -0.144266 0.204635 -0.012000
v -0.145000 0.200000 0.016000
v -0.145000 0.200000 -0.012000
v -0.144266 0.195365 0.016000
v -0.144266 0.195365 -0.012000
v -0.142135 0.191183 0.016000
v -0.142135 0.191183 -0.012000
v -0.138817 0.187865 0.016000
v -0.138817 0.187865 -0.012000
v -0.134635 0.185734 0.016000
v -0.134635 0.185734 -0.012000
v -0.130000 0.185000 0.016000
v -0.130000 0.185000 -0.012000
v -0.125365 0.185734 0.016000
v -0.125365 0.185734 -0.012000
v -0.121183 0.187865 0.016000
v -0.121183 0.187865 -0.012000
v -0.117865 0.191183 0.016000
v -0.117865 0.191183 -0.012000
v -0.115734 0.195365 0.016000
v -0.115734 0.195365 -0.012000
v 0.130000 0.220000 0.016000
v 0.130000 0.220000 -0.012000
v 0.145000 0.220000 0.016000
v 0.145000 0.220000 -0.012000
v 0.144266 0.224635 0.016000
v 0.144266 0.224635 -0.012000
v 0.142135 0.228817 0.016000
v 0.142135 0.228817 -0.012000
v 0.138817 0.232135 0.016000
v 0.138817 0.232135 -0.012000
v 0.134635 0.234266 0.016000
v 0.134635 0.234266 -0.012000
v 0.130000 0.235000 0.016000
v 0.130000 0.235000 -0.012000
v 0.125365 0.234266 0.016000
v 0.125365 0.234266 -0.012000
v 0.121183 0.232135 0.016000
v 0.121183 0.232135 -0.012000
v 0.117865 0.228817 0.016000
v 0.117865 0.228817 -0.012000
v 0.115734 0.224635 0.016000
v 0.115734 0.224635 -0.012000
v 0.115000 0.220000 0.016000
v 0.115000 0.220000 -0.012000
v 0.115734 0.215365 0.016000
v 0.115734 0.215365 -0.012000
v 0.117865 0.211183 0.016000
v 0.117865 0.211183 -0.012000
v 0.121183 0.207865 0.016000
v 0.121183 0.207865 -0.012000
v 0.125365 0.205734 0.016000
v 0.125365 0.205734 -0.012000
v 0.130000 0.205000 0.016000
v 0.130000 0.205000 -0.012000
v 0.134635 0.205734 0.016000
v 0.134635 0.205734 -0.012000
v 0.138817 0.207865 0.016000
v 0.138817 0.207865 -0.012000
v 0.142135 0.211183 0.016000
v 0.142135 0.211183 -0.012000
v 0.144266 0.215365 0.016000
v 0.144266 0.215365 -0.012000
v -0.130000 -0.200000 0.016000
v -0.130000 -0.200000 -0.012000
v -0.115000 -0.200000 0.016000
v -0.115000 -0.200000 -0.012000
v -0.115734 -0.195365 0.016000
v -0.115734 -0.195365 -0.012000
v -0.117865 -0.191183 0.016000
v -0.117865 -0.191183 -0.012000
v -0.121183 -0.187865 0.016000
v -0.121183 -0.187865 -0.012000
v -0.125365 -0.185734 0.016000
v -0.125365 -0.185734 -0.012000
v -0.130000 -0.185000 0.016000
v -0.130000 -0.185000 -0.012000
v -0.134635 -0.185734 0.016000
v -0.134635 -0.185734 -0.012000
v -0.138817 -0.187865 0.016000
v -0.138817 -0.187865 -0.012000
v -0.142135 -0.191183 0.016000
v -0.142135 -0.191183 -0.012000
v -0.144266 -0.195365 0.016000
v -0.144266 -0.195365 -0.012000
v -0.145000 -0.200000 0.016000
v -0.145000 -0.200000 -0.012000
v -0.144266 -0.204635 0.016000
v -0.144266 -0.204635 -0.012000
v -0.142135 -0.208817 0.016000
v -0.142135 -0.208817 -0.012000
v -0.138817 -0.212135 0.016000
v -0.138817 -0.212135 -0.012000
v -0.134635 -0.214266 0.016000
v -0.134635 -0.214266 -0.012000
v -0.130000 -0.215000 0.016000
v -0.130000 -0.215000 -0.012000
v -0.125365 -0.214266 0.016000
v -0.125365 -0.214266 -0.012000
v -0.121183 -0.212135 0.016000
v -0.121183 -0.212135 -0.012000
v -0.117865 -0.208817 0.016000
v -0.117865 -0.208817 -0.012000
v -0.115734 -0.204635 0.016000
v -0.115734 -0.204635 -0.012000
v 0.060000 0.030000 0.028000
v 0.060000 0.030000 0.000000
v 0.063000 0.030000 0.028000
v 0.063000 0.030000 0.000000
v 0.062598 0.031500 0.028000
v 0.062598 0.031500 0.000000
v 0.061500 0.032598 0.028000
v 0.061500 0.032598 0.000000
v 0.060000 0.033000 0.028000
v 0.060000 0.033000 0.000000
v 0.058500 0.032598 0.028000
v 0.058500 0.032598 0.000000
v 0.057402 0.031500 0.028000
v 0.057402 0.031500 0.000000
v 0.057000 0.030000 0.028000
v 0.057000 0.030000 0.000000
v 0.057402 0.028500 0.028000
v 0.057402 0.028500 0.000000
v 0.058500 0.027402 0.028000
v 0.058500 0.027402 0.000000
v 0.060000 0.027000 0.028000
v 0.060000 0.027000 0.000000
v 0.061500 0.027402 0.028000
v 0.061500 0.027402 0.000000
v 0.062598 0.028500 0.028000
v 0.062598 0.028500 0.000000
v 0.060000 -0.030000 0.028000
v 0.060000 -0.030000 0.000000
v 0.063000 -0.030000 0.028000
v 0.063000 -0.030000 0.000000
v 0.062598 -0.028500 0.028000
v 0.062598 -0.028500 0.000000
v 0.061500 -0.027402 0.028000
v 0.061500 -0.027402 0.000000
v 0.060000 -0.027000 0.028000
v 0.060000 -0.027000 0.000000
v 0.058500 -0.027402 0.028000
v 0.058500 -0.027402 0.000000
v 0.057402 -0.028500 0.028000
v 0.057402 -0.028500 0.000000
v 0.057000 -0.030000 0.028000
v 0.057000 -0.030000 0.000000
v 0.057402 -0.031500 0.028000
v 0.057402 -0.031500 0.000000
v 0.058500 -0.032598 0.028000
v 0.058500 -0.032598 0.000000
v 0.060000 -0.033000 0.028000
v 0.060000 -0.033000 0.000000
v 0.061500 -0.032598 0.028000
v 0.061500 -0.032598 0.000000
v 0.062598 -0.031500 0.028000
v 0.062598 -0.031500 0.000000
v -0.060000 0.030000 0.028000
v -0.060000 0.030000 0.000000
v -0.057000 0.030000 0.028000
v -0.057000 0.030000 0.000000
v -0.057402 0.031500 0.028000
v -0.057402 0.031500 0.000000
v -0.058500 0.032598 0.028000
v -0.058500 0.032598 0.000000
v -0.060000 0.033000 0.028000
v -0.060000 0.033000 0.000000
v -0.061500 0.032598 0.028000
v -0.061500 0.032598 0.000000
v -0.062598 0.031500 0.028000
v -0.062598 0.031500 0.000000
v -0.063000 0.030000 0.028000
v -0.063000 0.030000 0.000000
v -0.062598 0.028500 0.028000
v -0.062598 0.028500 0.000000
v -0.061500 0.027402 0.028000
v -0.061500 0.027402 0.000000
v -0.060000 0.027000 0.028000
v -0.060000 0.027000 0.000000
v -0.058500 0.027402 0.028000
v -0.058500 0.027402 0.000000
v -0.057402 0.028500 0.028000
v -0.057402 0.028500 0.000000
v -0.060000 -0.030000 0.028000
v -0.060000 -0.030000 0.000000
v -0.057000 -0.030000 0.028000
v -0.057000 -0.030000 0.000000
v -0.057402 -0.028500 0.028000
v -0.057402 -0.028500 0.000000
v -0.058500 -0.027402 0.028000
v -0.058500 -0.027402 0.000000
v -0.060000 -0.027000 0.028000
v -0.060000 -0.027000 0.000000
v -0.061500 -0.027402 0.028000
v -0.061500 -0.027402 0.000000
v -0.062598 -0.028500 0.028000
v -0.062598 -0.028500 0.000000
v -0.063000 -0.030000 0.028000
v -0.063000 -0.030000 0.000000
v -0.062598 -0.031500 0.028000
v -0.062598 -0.031500 0.000000
v -0.061500 -0.032598 0.028000
v -0.061500 -0.032598 0.000000
v -0.060000 -0.033000 0.028000
v -0.060000 -0.033000 0.000000
v -0.058500 -0.032598 0.028000
v -0.058500 -0.032598 0.000000
v -0.057402 -0.031500 0.028000
v -0.057402 -0.031500 0.000000
v 0.020000 0.040000 0.028000
v 0.020000 0.040000 0.000000
v 0.023000 0.040000 0.028000
v 0.023000 0.040000 0.000000
v 0.022598 0.041500 0.028000
v 0.022598 0.041500 0.000000
v 0.021500 0.042598 0.028000
v 0.021500 0.042598 0.000000
v 0.020000 0.043000 0.028000
v 0.020000 0.043000 0.000000
v 0.018500 0.042598 0.028000
v 0.018500 0.042598 0.000000
v 0.017402 0.041500 0.028000
v 0.017402 0.041500 0.000000
v 0.017000 0.040000 0.028000
v 0.017000 0.040000 0.000000
v 0.017402 0.038500 0.028000
v 0.017402 0.038500 0.000000
v 0.018500 0.037402 0.028000
v 0.018500 0.037402 0.000000
v 0.020000 0.037000 0.028000
v 0.020000 0.037000 0.000000
v 0.021500 0.037402 0.028000
v 0.021500 0.037402 0.000000
v 0.022598 0.038500 0.028000
v 0.022598 0.038500 0.000000
v 0.020000 -0.040000 0.028000
v 0.020000 -0.040000 0.000000
v 0.023000 -0.040000 0.028000
v 0.023000 -0.040000 0.000000
v 0.022598 -0.038500 0.028000
v 0.022598 -0.038500 0.000000
v 0.021500 -0.037402 0.028000
v 0.021500 -0.037402 0.000000
v 0.020000 -0.037000 0.028000
v 0.020000 -0.037000 0.000000
v 0.018500 -0.037402 0.028000
v 0.018500 -0.037402 0.000000
v 0.017402 -0.038500 0.028000
v 0.017402 -0.038500 0.000000
v 0.017000 -0.040000 0.028000
v 0.017000 -0.040000 0.000000
v 0.017402 -0.041500 0.028000
v 0.017402 -0.041500 0.000000
v 0.018500 -0.042598 0.028000
v 0.018500 -0.042598 0.000000
v 0.020000 -0.043000 0.028000
v 0.020000 -0.043000 0.000000
v 0.021500 -0.042598 0.028000
v 0.021500 -0.042598 0.000000
v 0.022598 -0.041500 0.028000
v 0.022598 -0.041500 0.000000
v -0.020000 0.040000 0.028000
v -0.020000 0.040000 0.000000
v -0.017000 0.040000 0.028000
v -0.017000 0.040000 0.000000
v -0.017402 0.041500 0.028000
v -0.017402 0.041500 0.000000
v -0.018500 0.042598 0.028000
v -0.018500 0.042598 0.000000
v -0.020000 0.043000 0.028000
v -0.020000 0.043000 0.000000
v -0.021500 0.042598 0.028000
v -0.021500 0.042598 0.000000
v -0.022598 0.041500 0.028000
v -0.022598 0.041500 0.000000
v -0.023000 0.040000 0.028000
v -0.023000 0.040000 0.000000
v -0.022598 0.038500 0.028000
v -0.022598 0.038500 0.000000
v -0.021500 0.037402 0.028000
v -0.021500 0.037402 0.000000
v -0.020000 0.037000 0.028000
v -0.020000 0.037000 0.000000
v -0.018500 0.037402 0.028000
v -0.018500 0.037402 0.000000
v -0.017402 0.038500 0.028000
v -0.017402 0.038500 0.000000
v -0.020000 -0.040000 0.028000
v -0.020000 -0.040000 0.000000
v -0.017000 -0.040000 0.028000
v -0.017000 -0.040000 0.000000
v -0.017402 -0.038500 0.028000
v -0.017402 -0.038500 0.000000
v -0.018500 -0.037402 0.028000
v -0.018500 -0.037402 0.000000
v -0.020000 -0.037000 0.028000
v -0.020000 -0.037000 0.000000
v -0.021500 -0.037402 0.028000
v -0.021500 -0.037402 0.000000
v -0.022598 -0.038500 0.028000
v -0.022598 -0.038500 0.000000
v -0.023000 -0.040000 0.028000
v -0.023000 -0.040000 0.000000
v -0.022598 -0.041500 0.028000
v -0.022598 -0.041500 0.000000
v -0.021500 -0.042598 0.028000
v -0.021500 -0.042598 0.000000
v -0.020000 -0.043000 0.028000
v -0.020000 -0.043000 0.000000
v -0.018500 -0.042598 0.028000
v -0.018500 -0.042598 0.000000
v -0.017402 -0.041500 0.028000
v -0.017402 -0.041500 0.000000
v 0.080000 -0.017500 0.007500
v 0.120000 -0.017500 0.007500
v 0.120000 0.017500 0.007500
v 0.080000 0.017500 0.007500
v 0.080000 -0.017500 0.032500
v 0.120000 -0.017500 0.032500
v 0.120000 0.017500 0.032500
v 0.080000 0.017500 0.032500
v 0.015000 0.015000 0.022000
v 0.015000 0.015000 0.006000
v 0.019000 0.015000 0.022000
v 0.019000 0.015000 0.006000
v 0.018464 0.017000 0.022000
v 0.018464 0.017000 0.006000
v 0.017000 0.018464 0.022000
v 0.017000 0.018464 0.006000
v 0.015000 0.019000 0.022000
v 0.015000 0.019000 0.006000
v 0.013000 0.018464 0.022000
v 0.013000 0.018464 0.006000
v 0.011536 0.017000 0.022000
v 0.011536 0.017000 0.006000
v 0.011000 0.015000 0.022000
v 0.011000 0.015000 0.006000
v 0.011536 0.013000 0.022000
v 0.011536 0.013000 0.006000
v 0.013000 0.011536 0.022000
v 0.013000 0.011536 0.006000
v 0.015000 0.011000 0.022000
v 0.015000 0.011000 0.006000
v 0.017000 0.011536 0.022000
v 0.017000 0.011536 0.006000
v 0.018464 0.013000 0.022000
v 0.018464 0.013000 0.006000
v 0.015000 -0.015000 0.022000
v 0.015000 -0.015000 0.006000
v 0.019000 -0.015000 0.022000
v 0.019000 -0.015000 0.006000
v 0.018464 -0.013000 0.022000
v 0.018464 -0.013000 0.006000
v 0.017000 -0.011536 0.022000
v 0.017000 -0.011536 0.006000
v 0.015000 -0.011000 0.022000
v 0.015000 -0.011000 0.006000
v 0.013000 -0.011536 0.022000
v 0.013000 -0.011536 0.006000
v 0.011536 -0.013000 0.022000
v 0.011536 -0.013000 0.006000
v 0.011000 -0.015000 0.022000
v 0.011000 -0.015000 0.006000
v 0.011536 -0.017000 0.022000
v 0.011536 -0.017000 0.006000
v 0.013000 -0.018464 0.022000
v 0.013000 -0.018464 0.006000
v 0.015000 -0.019000 0.022000
v 0.015000 -0.019000 0.006000
v 0.017000 -0.018464 0.022000
v 0.017000 -0.018464 0.006000
v 0.018464 -0.017000 0.022000
v 0.018464 -0.017000 0.006000
v -0.015000 0.015000 0.022000
v -0.015000 0.015000 0.006000
v -0.011000 0.015000 0.022000
v -0.011000 0.015000 0.006000
v -0.011536 0.017000 0.022000
v -0.011536 0.017000 0.006000
v -0.013000 0.018464 0.022000
v -0.013000 0.018464 0.006000
v -0.015000 0.019000 0.022000
v -0.015000 0.019000 0.006000
v -0.017000 0.018464 0.022000
v -0.017000 0.018464 0.006000
v -0.018464 0.017000 0.022000
v -0.018464 0.017000 0.006000
v -0.019000 0.015000 0.022000
v -0.019000 0.015000 0.006000
v -0.018464 0.013000 0.022000
v -0.018464 0.013000 0.006000
v -0.017000 0.011536 0.022000
v -0.017000 0.011536 0.006000
v -0.015000 0.011000 0.022000
v -0.015000 0.011000 0.006000
v -0.013000 0.011536 0.022000
v -0.013000 0.011536 0.006000
v -0.011536 0.013000 0.022000
v -0.011536 0.013000 0.006000
v -0.015000 -0.015000 0.022000
v -0.015000 -0.015000 0.006000
v -0.011000 -0.015000 0.022000
v -0.011000 -0.015000 0.006000
v -0.011536 -0.013000 0.022000
v -0.011536 -0.013000 0.006000
v -0.013000 -0.011536 0.022000
v -0.013000 -0.011536 0.006000
v -0.015000 -0.011000 0.022000
v -0.015000 -0.011000 0.006000
v -0.017000 -0.011536 0.022000
v -0.017000 -0.011536 0.006000
v -0.018464 -0.013000 0.022000
v -0.018464 -0.013000 0.006000
v -0.019000 -0.015000 0.022000
v -0.019000 -0.015000 0.006000
v -0.018464 -0.017000 0.022000
v -0.018464 -0.017000 0.006000
v -0.017000 -0.018464 0.022000
v -0.017000 -0.018464 0.006000
v -0.015000 -0.019000 0.022000
v -0.015000 -0.019000 0.006000
v -0.013000 -0.018464 0.022000
v -0.013000 -0.018464 0.006000
v -0.011536 -0.017000 0.022000
v -0.011536 -0.017000 0.006000
v -0.018000 -0.018000 0.022500
v 0.018000 -0.018000 0.022500
v 0.018000 0.018000 0.022500
v -0.018000 0.018000 0.022500
v -0.018000 -0.018000 0.025500
v 0.018000 -0.018000 0.025500
v 0.018000 0.018000 0.025500
v -0.018000 0.018000 0.025500
v -0.066527 -0.029664 0.013000
v -0.048401 -0.021212 0.013000
v -0.053473 -0.010336 0.013000
v -0.071599 -0.018788 0.013000
v -0.066527 -0.029664 0.023000
v -0.048401 -0.021212 0.023000
v -0.053473 -0.010336 0.023000
v -0.071599 -0.018788 0.023000
usemtl CarbonFiber
f 1 2 6
f 1 6 5
f 7 8 4
f 7 4 3
f 4 8 6
f 4 6 2
f 1 5 7
f 1 7 3
f 5 6 10
f 5 10 9
f 11 12 8
f 11 8 7
f 8 12 10
f 8 10 6
f 5 9 11
f 5 11 7
f 9 10 14
f 9 14 13
f 15 16 12
f 15 12 11
f 12 16 14
f 12 14 10
f 9 13 15
f 9 15 11
f 13 14 18
f 13 18 17
f 19 20 16
f 19 16 15
f 16 20 18
f 16 18 14
f 13 17 19
f 13 19 15
f 17 18 22
f 17 22 21
f 23 24 20
f 23 20 19
f 20 24 22
f 20 22 18
f 17 21 23
f 17 23 19
f 21 22 26
f 21 26 25
f 27 28 24
f 27 24 23
f 24 28 26
f 24 26 22
f 21 25 27
f 21 27 23
f 25 26 30
f 25 30 29
f 31 32 28
f 31 28 27
f 28 32 30
f 28 30 26
f 25 29 31
f 25 31 27
f 29 30 34
f 29 34 33
f 35 36 32
f 35 32 31
f 32 36 34
f 32 34 30
f 29 33 35
f 29 35 31
f 33 34 38
f 33 38 37
f 39 40 36
f 39 36 35
f 36 40 38
f 36 38 34
f 33 37 39
f 33 39 35
f 37 38 42
f 37 42 41
f 43 44 40
f 43 40 39
f 40 44 42
f 40 42 38
f 37 41 43
f 37 43 39
f 41 42 46
f 41 46 45
f 47 48 44
f 47 44 43
f 44 48 46
f 44 46 42
f 41 45 47
f 41 47 43
f 45 46 50
f 45 50 49
f 51 52 48
f 51 48 47
f 48 52 50
f 48 50 46
f 45 49 51
f 45 51 47
f 49 50 54
f 49 54 53
f 55 56 52
f 55 52 51
f 52 56 54
f 52 54 50
f 49 53 55
f 49 55 51
f 53 54 58
f 53 58 57
f 59 60 56
f 59 56 55
f 56 60 58
f 56 58 54
f 53 57 59
f 53 59 55
f 57 58 62
f 57 62 61
f 63 64 60
f 63 60 59
f 60 64 62
f 60 62 58
f 57 61 63
f 57 63 59
f 61 62 66
f 61 66 65
f 67 68 64
f 67 64 63
f 64 68 66
f 64 66 62
f 61 65 67
f 61 67 63
f 65 66 70
f 65 70 69
f 71 72 68
f 71 68 67
f 68 72 70
f 68 70 66
f 65 69 71
f 65 71 67
f 69 70 74
f 69 74 73
f 75 76 72
f 75 72 71
f 72 76 74
f 72 74 70
f 69 73 75
f 69 75 71
f 73 74 78
f 73 78 77
f 79 80 76
f 79 76 75
f 76 80 78
f 76 78 74
f 73 77 79
f 73 79 75
f 77 78 82
f 77 82 81
f 83 84 80
f 83 80 79
f 80 84 82
f 80 82 78
f 77 81 83
f 77 83 79
f 81 82 86
f 81 86 85
f 87 88 84
f 87 84 83
f 84 88 86
f 84 86 82
f 81 85 87
f 81 87 83
f 85 86 90
f 85 90 89
f 91 92 88
f 91 88 87
f 88 92 90
f 88 90 86
f 85 89 91
f 85 91 87
f 89 90 94
f 89 94 93
f 95 96 92
f 95 92 91
f 92 96 94
f 92 94 90
f 89 93 95
f 89 95 91
f 93 94 98
f 93 98 97
f 99 100 96
f 99 96 95
f 96 100 98
f 96 98 94
f 93 97 99
f 93 99 95
f 97 98 102
f 97 102 101
f 103 104 100
f 103 100 99
f 100 104 102
f 100 102 98
f 97 101 103
f 97 103 99
f 101 102 106
f 101 106 105
f 107 108 104
f 107 104 103
f 104 108 106
f 104 106 102
f 101 105 107
f 101 107 103
f 105 106 110
f 105 110 109
f 111 112 108
f 111 108 107
f 108 112 110
f 108 110 106
f 105 109 111
f 105 111 107
f 109 110 114
f 109 114 113
f 115 116 112
f 115 112 111
f 112 116 114
f 112 114 110
f 109 113 115
f 109 115 111
f 113 114 118
f 113 118 117
f 119 120 116
f 119 116 115
f 116 120 118
f 116 118 114
f 113 117 119
f 113 119 115
f 117 118 122
f 117 122 121
f 123 124 120
f 123 120 119
f 120 124 122
f 120 122 118
f 117 121 123
f 117 123 119
f 121 122 126
f 121 126 125
f 127 128 124
f 127 124 123
f 124 128 126
f 124 126 122
f 121 125 127
f 121 127 123
f 125 126 130
f 125 130 129
f 131 132 128
f 131 128 127
f 128 132 130
f 128 130 126
f 125 129 131
f 125 131 127
f 129 130 134
f 129 134 133
f 135 136 132
f 135 132 131
f 132 136 134
f 132 134 130
f 129 133 135
f 129 135 131
f 133 134 138
f 133 138 137
f 139 140 136
f 139 136 135
f 136 140 138
f 136 138 134
f 133 137 139
f 133 139 135
f 137 138 142
f 137 142 141
f 143 144 140
f 143 140 139
f 140 144 142
f 140 142 138
f 137 141 143
f 137 143 139
f 141 142 2
f 141 2 1
f 3 4 144
f 3 144 143
f 144 4 2
f 144 2 142
f 141 1 3
f 141 3 143
f 145 148 147
f 145 147 146
f 149 150 151
f 149 151 152
f 145 146 150
f 145 150 149
f 147 148 152
f 147 152 151
f 148 145 149
f 148 149 152
f 146 147 151
f 146 151 150
f 153 156 155
f 153 155 154
f 157 158 159
f 157 159 160
f 153 154 158
f 153 158 157
f 155 156 160
f 155 160 159
f 156 153 157
f 156 157 160
f 154 155 159
f 154 159 158
f 161 164 163
f 161 163 162
f 165 166 167
f 165 167 168
f 161 162 166
f 161 166 165
f 163 164 168
f 163 168 167
f 164 161 165
f 164 165 168
f 162 163 167
f 162 167 166
f 169 170 174
f 169 174 173
f 175 176 172
f 175 172 171
f 172 176 174
f 172 174 170
f 169 173 175
f 169 175 171
f 173 174 178
f 173 178 177
f 179 180 176
f 179 176 175
f 176 180 178
f 176 178 174
f 173 177 179
f 173 179 175
f 177 178 182
f 177 182 181
f 183 184 180
f 183 180 179
f 180 184 182
f 180 182 178
f 177 181 183
f 177 183 179
f 181 182 186
f 181 186 185
f 187 188 184
f 187 184 183
f 184 188 186
f 184 186 182
f 181 185 187
f 181 187 183
f 185 186 190
f 185 190 189
f 191 192 188
f 191 188 187
f 188 192 190
f 188 190 186
f 185 189 191
f 185 191 187
f 189 190 194
f 189 194 193
f 195 196 192
f 195 192 191
f 192 196 194
f 192 194 190
f 189 193 195
f 189 195 191
f 193 194 198
f 193 198 197
f 199 200 196
f 199 196 195
f 196 200 198
f 196 198 194
f 193 197 199
f 193 199 195
f 197 198 202
f 197 202 201
f 203 204 200
f 203 200 199
f 200 204 202
f 200 202 198
f 197 201 203
f 197 203 199
f 201 202 206
f 201 206 205
f 207 208 204
f 207 204 203
f 204 208 206
f 204 206 202
f 201 205 207
f 201 207 203
f 205 206 210
f 205 210 209
f 211 212 208
f 211 208 207
f 208 212 210
f 208 210 206
f 205 209 211
f 205 211 207
f 209 210 214
f 209 214 213
f 215 216 212
f 215 212 211
f 212 216 214
f 212 214 210
f 209 213 215
f 209 215 211
f 213 214 218
f 213 218 217
f 219 220 216
f 219 216 215
f 216 220 218
f 216 218 214
f 213 217 219
f 213 219 215
f 217 218 222
f 217 222 221
f 223 224 220
f 223 220 219
f 220 224 222
f 220 222 218
f 217 221 223
f 217 223 219
f 221 222 226
f 221 226 225
f 227 228 224
f 227 224 223
f 224 228 226
f 224 226 222
f 221 225 227
f 221 227 223
f 225 226 230
f 225 230 229
f 231 232 228
f 231 228 227
f 228 232 230
f 228 230 226
f 225 229 231
f 225 231 227
f 229 230 234
f 229 234 233
f 235 236 232
f 235 232 231
f 232 236 234
f 232 234 230
f 229 233 235
f 229 235 231
f 233 234 238
f 233 238 237
f 239 240 236
f 239 236 235
f 236 240 238
f 236 238 234
f 233 237 239
f 233 239 235
f 237 238 242
f 237 242 241
f 243 244 240
f 243 240 239
f 240 244 242
f 240 242 238
f 237 241 243
f 237 243 239
f 241 242 246
f 241 246 245
f 247 248 244
f 247 244 243
f 244 248 246
f 244 246 242
f 241 245 247
f 241 247 243
f 245 246 250
f 245 250 249
f 251 252 248
f 251 248 247
f 248 252 250
f 248 250 246
f 245 249 251
f 245 251 247
f 249 250 254
f 249 254 253
f 255 256 252
f 255 252 251
f 252 256 254
f 252 254 250
f 249 253 255
f 249 255 251
f 253 254 258
f 253 258 257
f 259 260 256
f 259 256 255
f 256 260 258
f 256 258 254
f 253 257 259
f 253 259 255
f 257 258 262
f 257 262 261
f 263 264 260
f 263 260 259
f 260 264 262
f 260 262 258
f 257 261 263
f 257 263 259
f 261 262 266
f 261 266 265
f 267 268 264
f 267 264 263
f 264 268 266
f 264 266 262
f 261 265 267
f 261 267 263
f 265 266 270
f 265 270 269
f 271 272 268
f 271 268 267
f 268 272 270
f 268 270 266
f 265 269 271
f 265 271 267
f 269 270 274
f 269 274 273
f 275 276 272
f 275 272 271
f 272 276 274
f 272 274 270
f 269 273 275
f 269 275 271
f 273 274 278
f 273 278 277
f 279 280 276
f 279 276 275
f 276 280 278
f 276 278 274
f 273 277 279
f 273 279 275
f 277 278 282
f 277 282 281
f 283 284 280
f 283 280 279
f 280 284 282
f 280 282 278
f 277 281 283
f 277 283 279
f 281 282 286
f 281 286 285
f 287 288 284
f 287 284 283
f 284 288 286
f 284 286 282
f 281 285 287
f 281 287 283
f 285 286 290
f 285 290 289
f 291 292 288
f 291 288 287
f 288 292 290
f 288 290 286
f 285 289 291
f 285 291 287
f 289 290 294
f 289 294 293
f 295 296 292
f 295 292 291
f 292 296 294
f 292 294 290
f 289 293 295
f 289 295 291
f 293 294 298
f 293 298 297
f 299 300 296
f 299 296 295
f 296 300 298
f 296 298 294
f 293 297 299
f 293 299 295
f 297 298 302
f 297 302 301
f 303 304 300
f 303 300 299
f 300 304 302
f 300 302 298
f 297 301 303
f 297 303 299
f 301 302 306
f 301 306 305
f 307 308 304
f 307 304 303
f 304 308 306
f 304 306 302
f 301 305 307
f 301 307 303
f 305 306 310
f 305 310 309
f 311 312 308
f 311 308 307
f 308 312 310
f 308 310 306
f 305 309 311
f 305 311 307
f 309 310 170
f 309 170 169
f 171 172 312
f 171 312 311
f 312 172 170
f 312 170 310
f 309 169 171
f 309 171 311
f 313 316 315
f 313 315 314
f 317 318 319
f 317 319 320
f 313 314 318
f 313 318 317
f 315 316 320
f 315 320 319
f 316 313 317
f 316 317 320
f 314 315 319
f 314 319 318
f 321 324 323
f 321 323 322
f 325 326 327
f 325 327 328
f 321 322 326
f 321 326 325
f 323 324 328
f 323 328 327
f 324 321 325
f 324 325 328
f 322 323 327
f 322 327 326
f 329 332 331
f 329 331 330
f 333 334 335
f 333 335 336
f 329 330 334
f 329 334 333
f 331 332 336
f 331 336 335
f 332 329 333
f 332 333 336
f 330 331 335
f 330 335 334
f 337 338 342
f 337 342 341
f 343 344 340
f 343 340 339
f 340 344 342
f 340 342 338
f 337 341 343
f 337 343 339
f 341 342 346
f 341 346 345
f 347 348 344
f 347 344 343
f 344 348 346
f 344 346 342
f 341 345 347
f 341 347 343
f 345 346 350
f 345 350 349
f 351 352 348
f 351 348 347
f 348 352 350
f 348 350 346
f 345 349 351
f 345 351 347
f 349 350 354
f 349 354 353
f 355 356 352
f 355 352 351
f 352 356 354
f 352 354 350
f 349 353 355
f 349 355 351
f 353 354 358
f 353 358 357
f 359 360 356
f 359 356 355
f 356 360 358
f 356 358 354
f 353 357 359
f 353 359 355
f 357 358 362
f 357 362 361
f 363 364 360
f 363 360 359
f 360 364 362
f 360 362 358
f 357 361 363
f 357 363 359
f 361 362 366
f 361 366 365
f 367 368 364
f 367 364 363
f 364 368 366
f 364 366 362
f 361 365 367
f 361 367 363
f 365 366 370
f 365 370 369
f 371 372 368
f 371 368 367
f 368 372 370
f 368 370 366
f 365 369 371
f 365 371 367
f 369 370 374
f 369 374 373
f 375 376 372
f 375 372 371
f 372 376 374
f 372 374 370
f 369 373 375
f 369 375 371
f 373 374 378
f 373 378 377
f 379 380 376
f 379 376 375
f 376 380 378
f 376 378 374
f 373 377 379
f 373 379 375
f 377 378 382
f 377 382 381
f 383 384 380
f 383 380 379
f 380 384 382
f 380 382 378
f 377 381 383
f 377 383 379
f 381 382 386
f 381 386 385
f 387 388 384
f 387 384 383
f 384 388 386
f 384 386 382
f 381 385 387
f 381 387 383
f 385 386 390
f 385 390 389
f 391 392 388
f 391 388 387
f 388 392 390
f 388 390 386
f 385 389 391
f 385 391 387
f 389 390 394
f 389 394 393
f 395 396 392
f 395 392 391
f 392 396 394
f 392 394 390
f 389 393 395
f 389 395 391
f 393 394 398
f 393 398 397
f 399 400 396
f 399 396 395
f 396 400 398
f 396 398 394
f 393 397 399
f 393 399 395
f 397 398 402
f 397 402 401
f 403 404 400
f 403 400 399
f 400 404 402
f 400 402 398
f 397 401 403
f 397 403 399
f 401 402 406
f 401 406 405
f 407 408 404
f 407 404 403
f 404 408 406
f 404 406 402
f 401 405 407
f 401 407 403
f 405 406 410
f 405 410 409
f 411 412 408
f 411 408 407
f 408 412 410
f 408 410 406
f 405 409 411
f 405 411 407
f 409 410 414
f 409 414 413
f 415 416 412
f 415 412 411
f 412 416 414
f 412 414 410
f 409 413 415
f 409 415 411
f 413 414 418
f 413 418 417
f 419 420 416
f 419 416 415
f 416 420 418
f 416 418 414
f 413 417 419
f 413 419 415
f 417 418 422
f 417 422 421
f 423 424 420
f 423 420 419
f 420 424 422
f 420 422 418
f 417 421 423
f 417 423 419
f 421 422 426
f 421 426 425
f 427 428 424
f 427 424 423
f 424 428 426
f 424 426 422
f 421 425 427
f 421 427 423
f 425 426 430
f 425 430 429
f 431 432 428
f 431 428 427
f 428 432 430
f 428 430 426
f 425 429 431
f 425 431 427
f 429 430 434
f 429 434 433
f 435 436 432
f 435 432 431
f 432 436 434
f 432 434 430
f 429 433 435
f 429 435 431
f 433 434 438
f 433 438 437
f 439 440 436
f 439 436 435
f 436 440 438
f 436 438 434
f 433 437 439
f 433 439 435
f 437 438 442
f 437 442 441
f 443 444 440
f 443 440 439
f 440 444 442
f 440 442 438
f 437 441 443
f 437 443 439
f 441 442 446
f 441 446 445
f 447 448 444
f 447 444 443
f 444 448 446
f 444 446 442
f 441 445 447
f 441 447 443
f 445 446 450
f 445 450 449
f 451 452 448
f 451 448 447
f 448 452 450
f 448 450 446
f 445 449 451
f 445 451 447
f 449 450 454
f 449 454 453
f 455 456 452
f 455 452 451
f 452 456 454
f 452 454 450
f 449 453 455
f 449 455 451
f 453 454 458
f 453 458 457
f 459 460 456
f 459 456 455
f 456 460 458
f 456 458 454
f 453 457 459
f 453 459 455
f 457 458 462
f 457 462 461
f 463 464 460
f 463 460 459
f 460 464 462
f 460 462 458
f 457 461 463
f 457 463 459
f 461 462 466
f 461 466 465
f 467 468 464
f 467 464 463
f 464 468 466
f 464 466 462
f 461 465 467
f 461 467 463
f 465 466 470
f 465 470 469
f 471 472 468
f 471 468 467
f 468 472 470
f 468 470 466
f 465 469 471
f 465 471 467
f 469 470 474
f 469 474 473
f 475 476 472
f 475 472 471
f 472 476 474
f 472 474 470
f 469 473 475
f 469 475 471
f 473 474 478
f 473 478 477
f 479 480 476
f 479 476 475
f 476 480 478
f 476 478 474
f 473 477 479
f 473 479 475
f 477 478 338
f 477 338 337
f 339 340 480
f 339 480 479
f 480 340 338
f 480 338 478
f 477 337 339
f 477 339 479
f 481 484 483
f 481 483 482
f 485 486 487
f 485 487 488
f 481 482 486
f 481 486 485
f 483 484 488
f 483 488 487
f 484 481 485
f 484 485 488
f 482 483 487
f 482 487 486
f 489 492 491
f 489 491 490
f 493 494 495
f 493 495 496
f 489 490 494
f 489 494 493
f 491 492 496
f 491 496 495
f 492 489 493
f 492 493 496
f 490 491 495
f 490 495 494
f 497 500 499
f 497 499 498
f 501 502 503
f 501 503 504
f 497 498 502
f 497 502 501
f 499 500 504
f 499 504 503
f 500 497 501
f 500 501 504
f 498 499 503
f 498 503 502
f 505 506 510
f 505 510 509
f 511 512 508
f 511 508 507
f 508 512 510
f 508 510 506
f 505 509 511
f 505 511 507
f 509 510 514
f 509 514 513
f 515 516 512
f 515 512 511
f 512 516 514
f 512 514 510
f 509 513 515
f 509 515 511
f 513 514 518
f 513 518 517
f 519 520 516
f 519 516 515
f 516 520 518
f 516 518 514
f 513 517 519
f 513 519 515
f 517 518 522
f 517 522 521
f 523 524 520
f 523 520 519
f 520 524 522
f 520 522 518
f 517 521 523
f 517 523 519
f 521 522 526
f 521 526 525
f 527 528 524
f 527 524 523
f 524 528 526
f 524 526 522
f 521 525 527
f 521 527 523
f 525 526 530
f 525 530 529
f 531 532 528
f 531 528 527
f 528 532 530
f 528 530 526
f 525 529 531
f 525 531 527
f 529 530 534
f 529 534 533
f 535 536 532
f 535 532 531
f 532 536 534
f 532 534 530
f 529 533 535
f 529 535 531
f 533 534 538
f 533 538 537
f 539 540 536
f 539 536 535
f 536 540 538
f 536 538 534
f 533 537 539
f 533 539 535
f 537 538 542
f 537 542 541
f 543 544 540
f 543 540 539
f 540 544 542
f 540 542 538
f 537 541 543
f 537 543 539
f 541 542 546
f 541 546 545
f 547 548 544
f 547 544 543
f 544 548 546
f 544 546 542
f 541 545 547
f 541 547 543
f 545 546 550
f 545 550 549
f 551 552 548
f 551 548 547
f 548 552 550
f 548 550 546
f 545 549 551
f 545 551 547
f 549 550 554
f 549 554 553
f 555 556 552
f 555 552 551
f 552 556 554
f 552 554 550
f 549 553 555
f 549 555 551
f 553 554 558
f 553 558 557
f 559 560 556
f 559 556 555
f 556 560 558
f 556 558 554
f 553 557 559
f 553 559 555
f 557 558 562
f 557 562 561
f 563 564 560
f 563 560 559
f 560 564 562
f 560 562 558
f 557 561 563
f 557 563 559
f 561 562 566
f 561 566 565
f 567 568 564
f 567 564 563
f 564 568 566
f 564 566 562
f 561 565 567
f 561 567 563
f 565 566 570
f 565 570 569
f 571 572 568
f 571 568 567
f 568 572 570
f 568 570 566
f 565 569 571
f 565 571 567
f 569 570 574
f 569 574 573
f 575 576 572
f 575 572 571
f 572 576 574
f 572 574 570
f 569 573 575
f 569 575 571
f 573 574 578
f 573 578 577
f 579 580 576
f 579 576 575
f 576 580 578
f 576 578 574
f 573 577 579
f 573 579 575
f 577 578 582
f 577 582 581
f 583 584 580
f 583 580 579
f 580 584 582
f 580 582 578
f 577 581 583
f 577 583 579
f 581 582 586
f 581 586 585
f 587 588 584
f 587 584 583
f 584 588 586
f 584 586 582
f 581 585 587
f 581 587 583
f 585 586 590
f 585 590 589
f 591 592 588
f 591 588 587
f 588 592 590
f 588 590 586
f 585 589 591
f 585 591 587
f 589 590 594
f 589 594 593
f 595 596 592
f 595 592 591
f 592 596 594
f 592 594 590
f 589 593 595
f 589 595 591
f 593 594 598
f 593 598 597
f 599 600 596
f 599 596 595
f 596 600 598
f 596 598 594
f 593 597 599
f 593 599 595
f 597 598 602
f 597 602 601
f 603 604 600
f 603 600 599
f 600 604 602
f 600 602 598
f 597 601 603
f 597 603 599
f 601 602 606
f 601 606 605
f 607 608 604
f 607 604 603
f 604 608 606
f 604 606 602
f 601 605 607
f 601 607 603
f 605 606 610
f 605 610 609
f 611 612 608
f 611 608 607
f 608 612 610
f 608 610 606
f 605 609 611
f 605 611 607
f 609 610 614
f 609 614 613
f 615 616 612
f 615 612 611
f 612 616 614
f 612 614 610
f 609 613 615
f 609 615 611
f 613 614 618
f 613 618 617
f 619 620 616
f 619 616 615
f 616 620 618
f 616 618 614
f 613 617 619
f 613 619 615
f 617 618 622
f 617 622 621
f 623 624 620
f 623 620 619
f 620 624 622
f 620 622 618
f 617 621 623
f 617 623 619
f 621 622 626
f 621 626 625
f 627 628 624
f 627 624 623
f 624 628 626
f 624 626 622
f 621 625 627
f 621 627 623
f 625 626 630
f 625 630 629
f 631 632 628
f 631 628 627
f 628 632 630
f 628 630 626
f 625 629 631
f 625 631 627
f 629 630 634
f 629 634 633
f 635 636 632
f 635 632 631
f 632 636 634
f 632 634 630
f 629 633 635
f 629 635 631
f 633 634 638
f 633 638 637
f 639 640 636
f 639 636 635
f 636 640 638
f 636 638 634
f 633 637 639
f 633 639 635
f 637 638 642
f 637 642 641
f 643 644 640
f 643 640 639
f 640 644 642
f 640 642 638
f 637 641 643
f 637 643 639
f 641 642 646
f 641 646 645
f 647 648 644
f 647 644 643
f 644 648 646
f 644 646 642
f 641 645 647
f 641 647 643
f 645 646 506
f 645 506 505
f 507 508 648
f 507 648 647
f 648 508 506
f 648 506 646
f 645 505 507
f 645 507 647
f 649 652 651
f 649 651 650
f 653 654 655
f 653 655 656
f 649 650 654
f 649 654 653
f 651 652 656
f 651 656 655
f 652 649 653
f 652 653 656
f 650 651 655
f 650 655 654
f 657 660 659
f 657 659 658
f 661 662 663
f 661 663 664
f 657 658 662
f 657 662 661
f 659 660 664
f 659 664 663
f 660 657 661
f 660 661 664
f 658 659 663
f 658 663 662
f 665 668 667
f 665 667 666
f 669 670 671
f 669 671 672
f 665 666 670
f 665 670 669
f 667 668 672
f 667 672 671
f 668 665 669
f 668 669 672
f 666 667 671
f 666 671 670
f 673 676 675
f 673 675 674
f 677 678 679
f 677 679 680
f 673 674 678
f 673 678 677
f 675 676 680
f 675 680 679
f 676 673 677
f 676 677 680
f 674 675 679
f 674 679 678
f 681 684 683
f 681 683 682
f 685 686 687
f 685 687 688
f 681 682 686
f 681 686 685
f 683 684 688
f 683 688 687
f 684 681 685
f 684 685 688
f 682 683 687
f 682 687 686
f 689 692 691
f 689 691 690
f 693 694 695
f 693 695 696
f 689 690 694
f 689 694 693
f 691 692 696
f 691 696 695
f 692 689 693
f 692 693 696
f 690 691 695
f 690 695 694
f 697 700 699
f 697 699 698
f 701 702 703
f 701 703 704
f 697 698 702
f 697 702 701
f 699 700 704
f 699 704 703
f 700 697 701
f 700 701 704
f 698 699 703
f 698 703 702
f 705 708 707
f 705 707 706
f 709 710 711
f 709 711 712
f 705 706 710
f 705 710 709
f 707 708 712
f 707 712 711
f 708 705 709
f 708 709 712
f 706 707 711
f 706 711 710
f 713 716 715
f 713 715 714
f 717 718 719
f 717 719 720
f 713 714 718
f 713 718 717
f 715 716 720
f 715 720 719
f 716 713 717
f 716 717 720
f 714 715 719
f 714 719 718
f 721 724 723
f 721 723 722
f 725 726 727
f 725 727 728
f 721 722 726
f 721 726 725
f 723 724 728
f 723 728 727
f 724 721 725
f 724 725 728
f 722 723 727
f 722 727 726
f 729 732 731
f 729 731 730
f 733 734 735
f 733 735 736
f 729 730 734
f 729 734 733
f 731 732 736
f 731 736 735
f 732 729 733
f 732 733 736
f 730 731 735
f 730 735 734
f 737 740 739
f 737 739 738
f 741 742 743
f 741 743 744
f 737 738 742
f 737 742 741
f 739 740 744
f 739 744 743
f 740 737 741
f 740 741 744
f 738 739 743
f 738 743 742
f 745 748 747
f 745 747 746
f 749 750 751
f 749 751 752
f 745 746 750
f 745 750 749
f 747 748 752
f 747 752 751
f 748 745 749
f 748 749 752
f 746 747 751
f 746 751 750
usemtl BlackMotor
f 753 755 757
f 754 758 756
f 756 758 757
f 756 757 755
f 753 757 759
f 754 760 758
f 758 760 759
f 758 759 757
f 753 759 761
f 754 762 760
f 760 762 761
f 760 761 759
f 753 761 763
f 754 764 762
f 762 764 763
f 762 763 761
f 753 763 765
f 754 766 764
f 764 766 765
f 764 765 763
f 753 765 767
f 754 768 766
f 766 768 767
f 766 767 765
f 753 767 769
f 754 770 768
f 768 770 769
f 768 769 767
f 753 769 771
f 754 772 770
f 770 772 771
f 770 771 769
f 753 771 773
f 754 774 772
f 772 774 773
f 772 773 771
f 753 773 775
f 754 776 774
f 774 776 775
f 774 775 773
f 753 775 777
f 754 778 776
f 776 778 777
f 776 777 775
f 753 777 779
f 754 780 778
f 778 780 779
f 778 779 777
f 753 779 781
f 754 782 780
f 780 782 781
f 780 781 779
f 753 781 783
f 754 784 782
f 782 784 783
f 782 783 781
f 753 783 785
f 754 786 784
f 784 786 785
f 784 785 783
f 753 785 787
f 754 788 786
f 786 788 787
f 786 787 785
f 753 787 789
f 754 790 788
f 788 790 789
f 788 789 787
f 753 789 791
f 754 792 790
f 790 792 791
f 790 791 789
f 753 791 793
f 754 794 792
f 792 794 793
f 792 793 791
f 753 793 755
f 754 756 794
f 794 756 755
f 794 755 793
f 795 797 799
f 796 800 798
f 798 800 799
f 798 799 797
f 795 799 801
f 796 802 800
f 800 802 801
f 800 801 799
f 795 801 803
f 796 804 802
f 802 804 803
f 802 803 801
f 795 803 805
f 796 806 804
f 804 806 805
f 804 805 803
f 795 805 807
f 796 808 806
f 806 808 807
f 806 807 805
f 795 807 809
f 796 810 808
f 808 810 809
f 808 809 807
f 795 809 811
f 796 812 810
f 810 812 811
f 810 811 809
f 795 811 813
f 796 814 812
f 812 814 813
f 812 813 811
f 795 813 815
f 796 816 814
f 814 816 815
f 814 815 813
f 795 815 817
f 796 818 816
f 816 818 817
f 816 817 815
f 795 817 819
f 796 820 818
f 818 820 819
f 818 819 817
f 795 819 821
f 796 822 820
f 820 822 821
f 820 821 819
f 795 821 823
f 796 824 822
f 822 824 823
f 822 823 821
f 795 823 825
f 796 826 824
f 824 826 825
f 824 825 823
f 795 825 827
f 796 828 826
f 826 828 827
f 826 827 825
f 795 827 829
f 796 830 828
f 828 830 829
f 828 829 827
f 795 829 831
f 796 832 830
f 830 832 831
f 830 831 829
f 795 831 833
f 796 834 832
f 832 834 833
f 832 833 831
f 795 833 835
f 796 836 834
f 834 836 835
f 834 835 833
f 795 835 797
f 796 798 836
f 836 798 797
f 836 797 835
f 837 839 841
f 838 842 840
f 840 842 841
f 840 841 839
f 837 841 843
f 838 844 842
f 842 844 843
f 842 843 841
f 837 843 845
f 838 846 844
f 844 846 845
f 844 845 843
f 837 845 847
f 838 848 846
f 846 848 847
f 846 847 845
f 837 847 849
f 838 850 848
f 848 850 849
f 848 849 847
f 837 849 851
f 838 852 850
f 850 852 851
f 850 851 849
f 837 851 853
f 838 854 852
f 852 854 853
f 852 853 851
f 837 853 855
f 838 856 854
f 854 856 855
f 854 855 853
f 837 855 857
f 838 858 856
f 856 858 857
f 856 857 855
f 837 857 859
f 838 860 858
f 858 860 859
f 858 859 857
f 837 859 861
f 838 862 860
f 860 862 861
f 860 861 859
f 837 861 863
f 838 864 862
f 862 864 863
f 862 863 861
f 837 863 865
f 838 866 864
f 864 866 865
f 864 865 863
f 837 865 867
f 838 868 866
f 866 868 867
f 866 867 865
f 837 867 869
f 838 870 868
f 868 870 869
f 868 869 867
f 837 869 871
f 838 872 870
f 870 872 871
f 870 871 869
f 837 871 873
f 838 874 872
f 872 874 873
f 872 873 871
f 837 873 875
f 838 876 874
f 874 876 875
f 874 875 873
f 837 875 877
f 838 878 876
f 876 878 877
f 876 877 875
f 837 877 839
f 838 840 878
f 878 840 839
f 878 839 877
f 879 881 883
f 880 884 882
f 882 884 883
f 882 883 881
f 879 883 885
f 880 886 884
f 884 886 885
f 884 885 883
f 879 885 887
f 880 888 886
f 886 888 887
f 886 887 885
f 879 887 889
f 880 890 888
f 888 890 889
f 888 889 887
f 879 889 891
f 880 892 890
f 890 892 891
f 890 891 889
f 879 891 893
f 880 894 892
f 892 894 893
f 892 893 891
f 879 893 895
f 880 896 894
f 894 896 895
f 894 895 893
f 879 895 897
f 880 898 896
f 896 898 897
f 896 897 895
f 879 897 899
f 880 900 898
f 898 900 899
f 898 899 897
f 879 899 901
f 880 902 900
f 900 902 901
f 900 901 899
f 879 901 903
f 880 904 902
f 902 904 903
f 902 903 901
f 879 903 905
f 880 906 904
f 904 906 905
f 904 905 903
f 879 905 907
f 880 908 906
f 906 908 907
f 906 907 905
f 879 907 909
f 880 910 908
f 908 910 909
f 908 909 907
f 879 909 911
f 880 912 910
f 910 912 911
f 910 911 909
f 879 911 913
f 880 914 912
f 912 914 913
f 912 913 911
f 879 913 915
f 880 916 914
f 914 916 915
f 914 915 913
f 879 915 917
f 880 918 916
f 916 918 917
f 916 917 915
f 879 917 919
f 880 920 918
f 918 920 919
f 918 919 917
f 879 919 881
f 880 882 920
f 920 882 881
f 920 881 919
f 921 923 925
f 922 926 924
f 924 926 925
f 924 925 923
f 921 925 927
f 922 928 926
f 926 928 927
f 926 927 925
f 921 927 929
f 922 930 928
f 928 930 929
f 928 929 927
f 921 929 931
f 922 932 930
f 930 932 931
f 930 931 929
f 921 931 933
f 922 934 932
f 932 934 933
f 932 933 931
f 921 933 935
f 922 936 934
f 934 936 935
f 934 935 933
f 921 935 937
f 922 938 936
f 936 938 937
f 936 937 935
f 921 937 939
f 922 940 938
f 938 940 939
f 938 939 937
f 921 939 941
f 922 942 940
f 940 942 941
f 940 941 939
f 921 941 943
f 922 944 942
f 942 944 943
f 942 943 941
f 921 943 945
f 922 946 944
f 944 946 945
f 944 945 943
f 921 945 923
f 922 924 946
f 946 924 923
f 946 923 945
f 947 949 951
f 948 952 950
f 950 952 951
f 950 951 949
f 947 951 953
f 948 954 952
f 952 954 953
f 952 953 951
f 947 953 955
f 948 956 954
f 954 956 955
f 954 955 953
f 947 955 957
f 948 958 956
f 956 958 957
f 956 957 955
f 947 957 959
f 948 960 958
f 958 960 959
f 958 959 957
f 947 959 961
f 948 962 960
f 960 962 961
f 960 961 959
f 947 961 963
f 948 964 962
f 962 964 963
f 962 963 961
f 947 963 965
f 948 966 964
f 964 966 965
f 964 965 963
f 947 965 967
f 948 968 966
f 966 968 967
f 966 967 965
f 947 967 969
f 948 970 968
f 968 970 969
f 968 969 967
f 947 969 971
f 948 972 970
f 970 972 971
f 970 971 969
f 947 971 949
f 948 950 972
f 972 950 949
f 972 949 971
f 973 975 977
f 974 978 976
f 976 978 977
f 976 977 975
f 973 977 979
f 974 980 978
f 978 980 979
f 978 979 977
f 973 979 981
f 974 982 980
f 980 982 981
f 980 981 979
f 973 981 983
f 974 984 982
f 982 984 983
f 982 983 981
f 973 983 985
f 974 986 984
f 984 986 985
f 984 985 983
f 973 985 987
f 974 988 986
f 986 988 987
f 986 987 985
f 973 987 989
f 974 990 988
f 988 990 989
f 988 989 987
f 973 989 991
f 974 992 990
f 990 992 991
f 990 991 989
f 973 991 993
f 974 994 992
f 992 994 993
f 992 993 991
f 973 993 995
f 974 996 994
f 994 996 995
f 994 995 993
f 973 995 997
f 974 998 996
f 996 998 997
f 996 997 995
f 973 997 975
f 974 976 998
f 998 976 975
f 998 975 997
f 999 1001 1003
f 1000 1004 1002
f 1002 1004 1003
f 1002 1003 1001
f 999 1003 1005
f 1000 1006 1004
f 1004 1006 1005
f 1004 1005 1003
f 999 1005 1007
f 1000 1008 1006
f 1006 1008 1007
f 1006 1007 1005
f 999 1007 1009
f 1000 1010 1008
f 1008 1010 1009
f 1008 1009 1007
f 999 1009 1011
f 1000 1012 1010
f 1010 1012 1011
f 1010 1011 1009
f 999 1011 1013
f 1000 1014 1012
f 1012 1014 1013
f 1012 1013 1011
f 999 1013 1015
f 1000 1016 1014
f 1014 1016 1015
f 1014 1015 1013
f 999 1015 1017
f 1000 1018 1016
f 1016 1018 1017
f 1016 1017 1015
f 999 1017 1019
f 1000 1020 1018
f 1018 1020 1019
f 1018 1019 1017
f 999 1019 1021
f 1000 1022 1020
f 1020 1022 1021
f 1020 1021 1019
f 999 1021 1023
f 1000 1024 1022
f 1022 1024 1023
f 1022 1023 1021
f 999 1023 1001
f 1000 1002 1024
f 1024 1002 1001
f 1024 1001 1023
f 1025 1027 1029
f 1026 1030 1028
f 1028 1030 1029
f 1028 1029 1027
f 1025 1029 1031
f 1026 1032 1030
f 1030 1032 1031
f 1030 1031 1029
f 1025 1031 1033
f 1026 1034 1032
f 1032 1034 1033
f 1032 1033 1031
f 1025 1033 1035
f 1026 1036 1034
f 1034 1036 1035
f 1034 1035 1033
f 1025 1035 1037
f 1026 1038 1036
f 1036 1038 1037
f 1036 1037 1035
f 1025 1037 1039
f 1026 1040 1038
f 1038 1040 1039
f 1038 1039 1037
f 1025 1039 1041
f 1026 1042 1040
f 1040 1042 1041
f 1040 1041 1039
f 1025 1041 1043
f 1026 1044 1042
f 1042 1044 1043
f 1042 1043 1041
f 1025 1043 1045
f 1026 1046 1044
f 1044 1046 1045
f 1044 1045 1043
f 1025 1045 1047
f 1026 1048 1046
f 1046 1048 1047
f 1046 1047 1045
f 1025 1047 1049
f 1026 1050 1048
f 1048 1050 1049
f 1048 1049 1047
f 1025 1049 1027
f 1026 1028 1050
f 1050 1028 1027
f 1050 1027 1049
f 1051 1053 1055
f 1052 1056 1054
f 1054 1056 1055
f 1054 1055 1053
f 1051 1055 1057
f 1052 1058 1056
f 1056 1058 1057
f 1056 1057 1055
f 1051 1057 1059
f 1052 1060 1058
f 1058 1060 1059
f 1058 1059 1057
f 1051 1059 1061
f 1052 1062 1060
f 1060 1062 1061
f 1060 1061 1059
f 1051 1061 1063
f 1052 1064 1062
f 1062 1064 1063
f 1062 1063 1061
f 1051 1063 1065
f 1052 1066 1064
f 1064 1066 1065
f 1064 1065 1063
f 1051 1065 1067
f 1052 1068 1066
f 1066 1068 1067
f 1066 1067 1065
f 1051 1067 1069
f 1052 1070 1068
f 1068 1070 1069
f 1068 1069 1067
f 1051 1069 1071
f 1052 1072 1070
f 1070 1072 1071
f 1070 1071 1069
f 1051 1071 1073
f 1052 1074 1072
f 1072 1074 1073
f 1072 1073 1071
f 1051 1073 1075
f 1052 1076 1074
f 1074 1076 1075
f 1074 1075 1073
f 1051 1075 1053
f 1052 1054 1076
f 1076 1054 1053
f 1076 1053 1075
f 1077 1079 1081
f 1078 1082 1080
f 1080 1082 1081
f 1080 1081 1079
f 1077 1081 1083
f 1078 1084 1082
f 1082 1084 1083
f 1082 1083 1081
f 1077 1083 1085
f 1078 1086 1084
f 1084 1086 1085
f 1084 1085 1083
f 1077 1085 1087
f 1078 1088 1086
f 1086 1088 1087
f 1086 1087 1085
f 1077 1087 1089
f 1078 1090 1088
f 1088 1090 1089
f 1088 1089 1087
f 1077 1089 1091
f 1078 1092 1090
f 1090 1092 1091
f 1090 1091 1089
f 1077 1091 1093
f 1078 1094 1092
f 1092 1094 1093
f 1092 1093 1091
f 1077 1093 1095
f 1078 1096 1094
f 1094 1096 1095
f 1094 1095 1093
f 1077 1095 1097
f 1078 1098 1096
f 1096 1098 1097
f 1096 1097 1095
f 1077 1097 1099
f 1078 1100 1098
f 1098 1100 1099
f 1098 1099 1097
f 1077 1099 1101
f 1078 1102 1100
f 1100 1102 1101
f 1100 1101 1099
f 1077 1101 1079
f 1078 1080 1102
f 1102 1080 1079
f 1102 1079 1101
f 1103 1105 1107
f 1104 1108 1106
f 1106 1108 1107
f 1106 1107 1105
f 1103 1107 1109
f 1104 1110 1108
f 1108 1110 1109
f 1108 1109 1107
f 1103 1109 1111
f 1104 1112 1110
f 1110 1112 1111
f 1110 1111 1109
f 1103 1111 1113
f 1104 1114 1112
f 1112 1114 1113
f 1112 1113 1111
f 1103 1113 1115
f 1104 1116 1114
f 1114 1116 1115
f 1114 1115 1113
f 1103 1115 1117
f 1104 1118 1116
f 1116 1118 1117
f 1116 1117 1115
f 1103 1117 1119
f 1104 1120 1118
f 1118 1120 1119
f 1118 1119 1117
f 1103 1119 1121
f 1104 1122 1120
f 1120 1122 1121
f 1120 1121 1119
f 1103 1121 1123
f 1104 1124 1122
f 1122 1124 1123
f 1122 1123 1121
f 1103 1123 1125
f 1104 1126 1124
f 1124 1126 1125
f 1124 1125 1123
f 1103 1125 1127
f 1104 1128 1126
f 1126 1128 1127
f 1126 1127 1125
f 1103 1127 1105
f 1104 1106 1128
f 1128 1106 1105
f 1128 1105 1127
f 1129 1132 1131
f 1129 1131 1130
f 1133 1134 1135
f 1133 1135 1136
f 1129 1130 1134
f 1129 1134 1133
f 1131 1132 1136
f 1131 1136 1135
f 1132 1129 1133
f 1132 1133 1136
f 1130 1131 1135
f 1130 1135 1134
usemtl BlueMatek
f 1241 1244 1243
f 1241 1243 1242
f 1245 1246 1247
f 1245 1247 1248
f 1241 1242 1246
f 1241 1246 1245
f 1243 1244 1248
f 1243 1248 1247
f 1244 1241 1245
f 1244 1245 1248
f 1242 1243 1247
f 1242 1247 1246
usemtl RedGrommet
f 1137 1139 1141
f 1138 1142 1140
f 1140 1142 1141
f 1140 1141 1139
f 1137 1141 1143
f 1138 1144 1142
f 1142 1144 1143
f 1142 1143 1141
f 1137 1143 1145
f 1138 1146 1144
f 1144 1146 1145
f 1144 1145 1143
f 1137 1145 1147
f 1138 1148 1146
f 1146 1148 1147
f 1146 1147 1145
f 1137 1147 1149
f 1138 1150 1148
f 1148 1150 1149
f 1148 1149 1147
f 1137 1149 1151
f 1138 1152 1150
f 1150 1152 1151
f 1150 1151 1149
f 1137 1151 1153
f 1138 1154 1152
f 1152 1154 1153
f 1152 1153 1151
f 1137 1153 1155
f 1138 1156 1154
f 1154 1156 1155
f 1154 1155 1153
f 1137 1155 1157
f 1138 1158 1156
f 1156 1158 1157
f 1156 1157 1155
f 1137 1157 1159
f 1138 1160 1158
f 1158 1160 1159
f 1158 1159 1157
f 1137 1159 1161
f 1138 1162 1160
f 1160 1162 1161
f 1160 1161 1159
f 1137 1161 1139
f 1138 1140 1162
f 1162 1140 1139
f 1162 1139 1161
f 1163 1165 1167
f 1164 1168 1166
f 1166 1168 1167
f 1166 1167 1165
f 1163 1167 1169
f 1164 1170 1168
f 1168 1170 1169
f 1168 1169 1167
f 1163 1169 1171
f 1164 1172 1170
f 1170 1172 1171
f 1170 1171 1169
f 1163 1171 1173
f 1164 1174 1172
f 1172 1174 1173
f 1172 1173 1171
f 1163 1173 1175
f 1164 1176 1174
f 1174 1176 1175
f 1174 1175 1173
f 1163 1175 1177
f 1164 1178 1176
f 1176 1178 1177
f 1176 1177 1175
f 1163 1177 1179
f 1164 1180 1178
f 1178 1180 1179
f 1178 1179 1177
f 1163 1179 1181
f 1164 1182 1180
f 1180 1182 1181
f 1180 1181 1179
f 1163 1181 1183
f 1164 1184 1182
f 1182 1184 1183
f 1182 1183 1181
f 1163 1183 1185
f 1164 1186 1184
f 1184 1186 1185
f 1184 1185 1183
f 1163 1185 1187
f 1164 1188 1186
f 1186 1188 1187
f 1186 1187 1185
f 1163 1187 1165
f 1164 1166 1188
f 1188 1166 1165
f 1188 1165 1187
f 1189 1191 1193
f 1190 1194 1192
f 1192 1194 1193
f 1192 1193 1191
f 1189 1193 1195
f 1190 1196 1194
f 1194 1196 1195
f 1194 1195 1193
f 1189 1195 1197
f 1190 1198 1196
f 1196 1198 1197
f 1196 1197 1195
f 1189 1197 1199
f 1190 1200 1198
f 1198 1200 1199
f 1198 1199 1197
f 1189 1199 1201
f 1190 1202 1200
f 1200 1202 1201
f 1200 1201 1199
f 1189 1201 1203
f 1190 1204 1202
f 1202 1204 1203
f 1202 1203 1201
f 1189 1203 1205
f 1190 1206 1204
f 1204 1206 1205
f 1204 1205 1203
f 1189 1205 1207
f 1190 1208 1206
f 1206 1208 1207
f 1206 1207 1205
f 1189 1207 1209
f 1190 1210 1208
f 1208 1210 1209
f 1208 1209 1207
f 1189 1209 1211
f 1190 1212 1210
f 1210 1212 1211
f 1210 1211 1209
f 1189 1211 1213
f 1190 1214 1212
f 1212 1214 1213
f 1212 1213 1211
f 1189 1213 1191
f 1190 1192 1214
f 1214 1192 1191
f 1214 1191 1213
f 1215 1217 1219
f 1216 1220 1218
f 1218 1220 1219
f 1218 1219 1217
f 1215 1219 1221
f 1216 1222 1220
f 1220 1222 1221
f 1220 1221 1219
f 1215 1221 1223
f 1216 1224 1222
f 1222 1224 1223
f 1222 1223 1221
f 1215 1223 1225
f 1216 1226 1224
f 1224 1226 1225
f 1224 1225 1223
f 1215 1225 1227
f 1216 1228 1226
f 1226 1228 1227
f 1226 1227 1225
f 1215 1227 1229
f 1216 1230 1228
f 1228 1230 1229
f 1228 1229 1227
f 1215 1229 1231
f 1216 1232 1230
f 1230 1232 1231
f 1230 1231 1229
f 1215 1231 1233
f 1216 1234 1232
f 1232 1234 1233
f 1232 1233 1231
f 1215 1233 1235
f 1216 1236 1234
f 1234 1236 1235
f 1234 1235 1233
f 1215 1235 1237
f 1216 1238 1236
f 1236 1238 1237
f 1236 1237 1235
f 1215 1237 1239
f 1216 1240 1238
f 1238 1240 1239
f 1238 1239 1237
f 1215 1239 1217
f 1216 1218 1240
f 1240 1218 1217
f 1240 1217 1239
usemtl YellowXT60
f 1249 1252 1251
f 1249 1251 1250
f 1253 1254 1255
f 1253 1255 1256
f 1249 1250 1254
f 1249 1254 1253
f 1251 1252 1256
f 1251 1256 1255
f 1252 1249 1253
f 1252 1253 1256
f 1250 1251 1255
f 1250 1255 1254
